<?xml version="1.0" encoding="UTF-8"?>
<svg enable-background="new 0 0 1920 214" version="1.1" viewBox="0 0 1920 214" xml:space="preserve" xmlns="http://www.w3.org/2000/svg">
<path d="m1921 207v7.9368h-1920v-213.94c13.04 0 26.038 0 39.6 0.3588 1.4699 2.1339 1.9098 4.676 3.3586 5.5545 7.1531 4.3375 14.573 8.2347 22.092 12.565 9.7349 5.4271 19.277 10.576 29.018 15.997 9.6412 5.6435 19.083 11.016 28.725 16.623 7.938 4.9037 15.676 9.5727 23.638 14.524 10.563 6.6833 20.901 13.084 31.451 19.76 11.832 6.3534 23.453 12.431 35.361 18.724 17.395 7.7325 35.437 12.311 53.949 12.651 39.909 0.73276 79.842 0.21415 120.18 0.32356 13.488 0.68069 26.56 1.2454 39.936 2.0736 4.0867 0.34396 7.8694 0.42448 12.112 0.5968 11.15 0.075081 21.84 0.058357 32.896 0.11659 1.1151 0.055481 1.8632 0.036003 3.0588 0.10188 3.1882-0.008163 5.9289-0.10168 9.0488-0.16711 1.3887-0.03759 2.3982-0.10326 3.84-0.055527 3.3284-0.35999 6.2244-0.83338 9.5175-1.2993 1.9871-0.11705 3.5771-0.24153 5.3878-0.18774 1.0603-0.046486 1.9001-0.27123 3.1342-0.48133 2.4782-0.22545 4.5619-0.46555 6.8207-0.54674 0.71906-0.016091 1.2631-0.19109 2.1754-0.35536 1.7985-0.26184 3.2287-0.5344 5.0916-0.7509 4.4728-0.52881 8.5129-1.1137 12.818-1.6096 0.75671-0.11834 1.2483-0.3256 2.1479-0.48012 2.8029-0.36604 5.1976-0.78482 8.0102-1.1461 10.187-1.7984 19.956-3.6543 30.149-5.5097 8.4231-1.8045 16.423-3.6096 24.799-5.3567 1.8137-0.37271 3.2504-0.80336 5.0842-1.1898 6.0887-1.3441 11.78-2.7324 17.812-4.0812 1.8147-0.41306 3.2891-0.86553 5.1829-1.3706 9.7911-2.3569 19.163-4.6612 28.804-6.8804 0.75037-0.15073 1.2311-0.38654 2.0312-0.5921 1.1267-0.23299 1.9339-0.49623 3.1632-0.74269 22.891-4.6095 45.332-9.3746 67.837-13.812 14.503-2.8596 29.101-5.2384 44.017-7.7408 1.8157-0.18746 3.2706-0.46683 5.1414-0.69972 6.7953-0.96375 13.175-1.974 19.982-2.9558 2.7961-0.3574 5.165-0.74326 7.9609-1.1046 5.1606-0.65068 9.8941-1.3258 15.052-1.9376 7.7603-0.85165 15.097-1.7667 22.697-2.5286 0.79761-0.043625 1.3316-0.24046 2.3026-0.42668 2.4359-0.22987 4.4347-0.47036 6.6985-0.55802 0.79688-0.053345 1.3286-0.25951 2.3068-0.4538 2.7757-0.26131 5.105-0.5345 7.6902-0.6428 0.78973-0.023282 1.3234-0.21144 2.2882-0.38486 4.1232-0.37303 7.8152-0.76079 11.931-1.0599 4.4907-0.46129 8.5574-1.0113 13.091-1.5597 22.901-2.2534 45.357-4.3203 67.763-6.8353 12.997-1.4589 25.914-3.638 39.301-5.4445 2.7826-0.055649 5.1302-0.15976 7.9435-0.20528 5.8272 0.077263 11.189 0.095951 16.905 0.1804 2.1219 0.056137 3.8896 0.046513 6.116 0.10484 4.4674 0.10187 8.4763 0.13578 12.829 0.3688 3.1493 0.25449 5.9551 0.30988 9.0532 0.59424 2.7485 0.13676 5.2047 0.044536 8.1025 0.012737 4.8031 0.20275 9.1643 0.34507 13.865 0.61644 0.81909 0.10645 1.2991 0.08385 2.0272 0.30507 2.0576 0.17685 3.8671 0.10988 6.0846 0.11346 4.1582 0.26925 7.9082 0.46795 11.889 0.90554 1.7299 0.18964 3.2281 0.14038 5.1149 0.18481 3.1349 0.27663 5.8813 0.45958 8.9025 0.88569 1.7509 0.25949 3.2271 0.27582 5.1125 0.42939 2.1385 0.21314 3.8679 0.28903 5.8469 0.57454 1.0782 0.15568 1.9069 0.10175 3.148 0.23548 16.501 2.7096 32.647 4.917 48.659 7.8549 12.396 2.2744 24.624 5.4628 37.291 8.4293 8.7772 2.3339 17.19 4.4833 25.915 6.8111 12.39 3.4463 24.468 6.7142 36.846 10.183 17.496 4.7791 34.692 9.3571 52.106 14.174 5.3992 1.5533 10.58 2.868 16.105 4.3291 2.2594 0.69254 4.1592 1.2957 6.0895 1.7759 13.514 3.3623 27.035 6.6991 40.849 10.241 1.4413 0.39412 2.5874 0.59114 3.9285 0.98852 0.72595 0.25289 1.2567 0.30542 2.1433 0.54691 12.448 3.219 24.541 6.249 36.982 9.4482 14.12 3.6424 27.891 7.1155 42.021 10.764 9.7792 2.5118 19.2 4.848 28.872 7.4196 1.3807 0.452 2.511 0.66869 3.9313 1.114 7.1451 1.9521 14 3.6755 21.108 5.6478 1.4235 0.43071 2.5951 0.61256 4.0818 1.0021 4.639 1.3944 8.9552 2.6107 13.288 3.7634 43.224 11.498 86.348 23.395 129.72 34.293 19.617 4.9284 39.735 7.8637 60.017 11.853 5.4741 0.73123 10.557 1.3124 15.915 2.1187 1.4442 0.27019 2.6144 0.31526 4.1809 0.4827 1.7773 0.18474 3.1583 0.24712 4.8461 0.51399 1.7903 0.25774 3.2737 0.31097 5.1644 0.48692 2.1113 0.1981 3.8153 0.27348 5.8677 0.54886 5.1165 0.39789 9.8844 0.5958 14.978 0.87869 0.76856 0.044967 1.2117 0.004898 2.0624 0.074997 3.4867 0.30908 6.566 0.50801 9.8678 0.91197 1.3894 0.14079 2.5564 0.076568 4.1356 0.089309 1.8041 0.043534 3.196 0.010102 4.9938 0.084183 6.8026 0.30988 13.199 0.51219 20.036 0.83254 4.8197 0.22491 9.1992 0.33182 13.996 0.57913 2.4783 0.16989 4.5391 0.19937 6.9153 0.45088 3.4334 0.20613 6.5513 0.19025 10.076 0.23895 6.8031 0.26109 13.199 0.45758 19.914 0.85901 3.0941 0.174 5.8696 0.14305 9.0554 0.16368 6.1506 0.23053 11.891 0.4095 17.914 0.78621 2.0814 0.12588 3.8809 0.054032 6.1328 0.028107 4.8151 0.088913 9.1776 0.13188 13.785 0.37018 0.41968 0.30827 0.59509 0.42119 0.77063 0.53412z" fill="transparent"/>
<path d="m1704 1c72.249-6e-6 144.5-6e-6 217-6e-6 0 52.687 0 105.37-0.33154 158.69-1.1261 3.1855-1.9207 5.7467-3.0713 8.3506-3.0533 2.2189-5.6382 1.8104-8.4688 0.082474-2.2122-1.3504-4.7764-2.1088-7.1088-3.2803-5.2795-2.6516-10.694-5.0985-15.726-8.1653-9.9464-6.0619-19.892-12.173-28.476-20.185-2.6223-2.4476-5.4686-4.6649-7.9913-7.207-2.6758-2.6964-4.5547-6.7663-7.7183-8.285-8.9124-4.2782-10.443-14.61-17.817-19.339 1.1307-1.9503 1.9196-3.3107 3.0564-4.7182 9.6034-3.9072 9.8931-12.177 7.6145-17.472-3.676-8.5407-16.7-9.1693-22.36-0.46496-4.4084 2.0238-6.7975-0.30223-9.1295-3.1541-6.1583-7.5308-11.699-15.752-18.781-22.296-9.2791-8.5737-19.439-16.334-29.897-23.451-9.3188-6.3422-19.472-11.491-29.422-16.861-5.9503-3.2119-12.265-5.7429-18.303-8.8033-1.2765-0.64704-2.0599-2.267-3.0706-3.4386m168.75 113.6c-2.171 8.5529 2.0752 14.6 9.2726 13.255 4.5383-0.84816 7.6266-4.0376 7.4852-8.047-0.10742-3.0473-2.5035-7.014-5.0992-8.7403-3.9402-2.6205-8.2521-1.0662-11.659 3.5322m44.817-71.348c-0.94421-1.3375-1.7362-2.8226-2.8622-3.9838-3.0309-3.1262-7.9388-3.2434-11.048-0.42123-3.8463 3.4912-4.3271 8.0085-1.5145 11.848 2.542 3.4699 6.2124 4.3564 9.662 3.0107 3.972-1.5494 6.6671-4.842 5.7626-10.453m-106.15-19.326c2.4757-5.2585 1.1193-10.505-3.172-10.641-2.5361-0.08039-6.3209 1.2107-7.3755 3.0974-1.0588 1.894-0.26221 5.9309 1.2252 7.8822 2.2085 2.8974 5.77 2.5203 9.3223-0.33885z" fill="#AB1E6D"/>
<path d="m1730 195.82c-19.891-3.8396-40.009-6.7749-59.626-11.703-43.375-10.897-86.5-22.794-129.72-34.293-4.333-1.1527-8.6492-2.369-13.286-4.1846-0.45264-9.1419-3.9028-15.227-10.51-17.007-3.4181-0.92091-7.2184-0.42343-11.035-0.8499-2.2043-3.0611-4.4908-5.6842-6.1836-8.6465-5.0559-8.8472-9.1749-18.316-14.953-26.645-9.4181-13.576-19.853-26.436-32.727-37.069-5.3168-4.3913-10.16-9.402-15.722-13.438-6.0554-4.3937-12.685-7.9985-19.083-11.917-6.1425-3.7625-12.29-7.5168-18.473-11.212-2.2408-1.3392-4.5277-2.6364-6.9058-3.7025-3.3898-1.5199-7.0017-2.5772-10.298-4.2629-3.2329-1.6531-6.2944-3.704-9.2218-5.8641-1.3431-0.99108-2.1852-2.6614-3.2544-4.0237 25.688-3e-6 51.375-3e-6 77.58 0.36198 4.3672 9.8738 6.9246 11.961 14.329 11.636 6.536-0.28736 10.428-3.8545 13.091-11.998 5.688 0 11.376 0 17.537 0.37391 1.8146 2.9724 3.0038 5.665 4.5343 8.147 2.1823 3.539 4.6146 6.9237 6.5333 10.407-9.2466 0.61511-14.967 6.3146-16.361 13.753-1.3427 7.1648 2.0366 14.833 8.2651 18.086 7.7057 4.0244 15.632 2.9665 21.202-3.0462 1.9409-2.0954 3.4858-4.5575 5.3541-6.5299 2.1061 2.9739 3.9501 5.7255 6.0619 8.2534 3.0442 3.6441 6.298 7.1123 9.4296 10.684 0.97168 1.1085 1.6895 2.4753 2.7737 3.4438 7.8589 7.0211 15.75 14.007 23.692 20.934 12.533 10.93 25.918 20.684 40.624 28.497 9.7428 5.1756 19.647 10.048 29.488 15.038 0.73316 0.37172 1.5643 0.54546 2.3146 0.88864 6.1642 2.8198 12.321 5.6559 18.477 8.4931 0.86316 0.39786 1.7975 1.3066 2.5533 1.1706 8.016-1.4428 14.013 3.7519 20.715 6.3855 3.4014 1.3366 6.4205 3.9108 9.271 6.3283 5.554 4.71 10.656 9.9697 16.342 14.504 5.5553 4.4297 11.731 8.0758 17.371 12.408 2.0063 1.5408 2.832 4.7545 4.9156 6.0304 4.2209 2.5846 5.2867 6.1142 4.9097 10.569m-193.24-119.37c-3.0098-0.16647-6.256-1.1278-8.9758-0.31916-4.4437 1.3211-6.7709 4.8633-6.8368 9.8232-0.069947 5.2569 2.7399 8.5842 7.0918 10.389 4.0983 1.6998 7.9341 0.84417 11.121-2.8811 4.5059-5.2672 4.0847-10.741-2.4001-17.012m54.39 71.462c1.1589 0.041122 2.3188 0.13635 3.4766 0.11403 5.0652-0.097779 7.9939-2.9291 9.0345-7.6333 1.0183-4.6035-0.31372-8.5703-4.4149-11.204-3.6311-2.3316-9.2701-1.6105-12.328 1.3747-6.1306 5.9847-4.827 12.41 4.2319 17.348z" fill="#DD258C"/>
<path d="m1730.4 195.97c-0.014038-4.6045-1.0798-8.1341-5.3008-10.719-2.0836-1.2759-2.9093-4.4896-4.9156-6.0304-5.6406-4.3318-11.816-7.9779-17.371-12.408-5.686-4.5339-10.788-9.7936-16.342-14.504-2.8505-2.4174-5.8696-4.9916-9.271-6.3283-6.702-2.6336-12.699-7.8283-20.715-6.3855-0.75586 0.13606-1.6902-0.7727-2.5533-1.1706-6.1562-2.8371-12.313-5.6733-18.477-8.4931-0.75024-0.34318-1.5814-0.51692-2.3146-0.88864-9.8413-4.9894-19.745-9.862-29.488-15.038-14.707-7.8126-28.091-17.567-40.624-28.497-7.9426-6.9264-15.833-13.913-23.692-20.934-1.0842-0.96851-1.802-2.3353-2.7737-3.4438-3.1316-3.572-6.3854-7.0403-9.4296-10.684-2.1118-2.5278-3.9558-5.2795-6.0548-8.6682-0.20508-13.078-6.9597-22.865-18.06-21.881-2.3256-3.4506-4.7579-6.8353-6.9402-10.374-1.5305-2.4821-2.7197-5.1746-4.0663-8.147 13.016-0.37391 26.037-0.37391 39.531-0.003079 1.4268 2.2459 2.0646 4.3872 3.3851 5.9525 8.3939 9.9489 16.706 19.984 25.512 29.562 6.2152 6.7598 12.835 13.24 19.88 19.119 7.6897 6.417 15.784 12.466 24.259 17.787 6.2712 3.9375 11.964 9.7842 20.398 9.625 0.59253 2.8765 0.47473 5.8572 1.8705 7.6769 4.132 5.3867 8.3505 5.1601 15.168 0.29504 1.5543 2.1039 2.7816 4.5337 4.7167 5.4227 5.1881 2.3834 10.939 3.6032 15.991 6.207 8.2239 4.2383 16.082 9.1884 24.07 13.88 5.1062 2.9989 10.168 6.0729 15.228 9.5304-0.21289 1.2202-0.40454 2.0231-0.59412 2.8265-1.7159 7.2726 0.50476 12.941 6.7578 17.25 5.3102 3.6594 10.252 3.44 16.609-0.74934 1.3845-0.91246 2.7506-1.8532 4.4075-2.5975 5.416 5.5291 10.526 10.898 15.688 16.216 12.058 12.422 24.172 24.792 36.163 37.278 1.0304 1.0729 1.3209 2.8562 1.9552 4.3095-0.44324 0.040055-0.88635 0.080124-1.762-0.34872-5.3612-0.5442-10.29-0.61949-15.219-0.69479-1.704-0.075393-3.408-0.15077-5.6492-0.64436-2.1385-0.4108-3.7399-0.40337-5.3413-0.39594-1.381-0.062378-2.762-0.12476-4.6572-0.59235-1.7886-0.41179-3.0629-0.41835-4.3373-0.42491-5.0831-0.58119-10.166-1.1624-15.641-1.8936z" fill="#D82388"/>
<path d="m388 117.96c-39.923 0.006553-79.855 0.52516-119.76-0.2076-18.512-0.33988-36.554-4.918-53.921-12.947 0.088105-0.9576 0.43471-1.4044 1.1548-1.792 5.0885 3.2788 9.7687 2.4001 14.8 0.096336 14.002 1.2899 27.622 2.8979 41.282 3.3899 9.0489 0.32593 18.167-0.80006 27.233-1.5464 9.0458-0.74474 18.102-1.56 27.081-2.8494 6.5162-0.93573 12.992-2.411 19.348-4.1466 12.547-3.4256 25.152-6.7546 37.437-10.984 8.2641-2.8448 16.174-6.8683 23.959-10.911 7.4249-3.8559 14.64-8.1762 21.657-12.739 7.4826-4.866 14.698-10.156 21.887-15.455 4.246-3.1294 8.3923-6.4431 12.26-10.024 3.9691-3.6749 7.565-7.7558 11.286-11.695 5.9032-6.2482 11.865-12.445 17.602-18.844 1.595-1.7789 2.4846-4.1903 3.6979-6.3115 5.3549 1e-6 10.71 1e-6 16.574 0.33993 2.483 2.431 4.4567 4.5221 6.4287 7.0027-4.0596 6.6487-7.8723 13.087-12.264 19.102-2.7914 3.8235-6.361 7.1008-9.7258 10.479-7.8077 7.8399-15.513 15.798-23.621 23.318-6.8821 6.3833-14.178 12.334-21.466 18.261-5.1095 4.1556-10.349 8.1955-15.827 11.843-6.6199 4.4075-14.023 7.7489-20.226 12.644-7.1292 5.6264-15.035 8.8009-23.569 11.107-1.2675 0.34254-2.2117 1.882-3.3054 2.8677z" fill="#1696B8"/>
<path d="m1368.5 1c1.5378 1.3623 2.3799 3.0326 3.723 4.0237 2.9274 2.1601 5.9889 4.211 9.2218 5.8641 3.2968 1.6857 6.9087 2.743 10.298 4.2629 2.3781 1.0661 4.6649 2.3633 6.9058 3.7025 6.183 3.695 12.331 7.4493 18.473 11.212 6.3976 3.9188 13.027 7.5237 19.083 11.917 5.562 4.0356 10.406 9.0463 15.722 13.438 12.873 10.632 23.309 23.492 32.727 37.069 5.7778 8.3289 9.8968 17.798 14.953 26.645 1.6927 2.9623 3.9792 5.5853 5.9852 8.906-2.5492 3.7015-5.0891 6.8604-7.629 10.019-9.421-2.3363-18.842-4.6725-28.632-7.5383-2.5679-4.5913-4.4426-8.8748-7.0325-12.67-5.9669-8.7443-11.745-17.712-18.616-25.716-5.9799-6.9656-13.059-13.093-20.185-18.942-9.1987-7.5503-18.686-14.809-28.522-21.5-5.5569-3.7798-12.135-6.0285-18.124-9.2093-12.877-6.8386-25.631-13.908-38.51-20.742-10.515-5.5799-21.179-10.879-31.667-16.508-1.547-0.83027-2.486-2.7933-3.7063-4.2322 21.688-5e-6 43.375-5e-6 65.531-2e-6m46.138 53.002c0.49951 2.98e-4 1 0.021321 1.4984-0.002334 4.5448-0.2157 8.7424-4.2254 8.802-8.3995 0.053833-3.7771-3.9011-8.2425-7.6114-8.5938-4.4912-0.42516-9.5311 2.8465-10.316 6.6963-1.0024 4.9183 1.696 9.0058 7.6271 10.299z" fill="#DD2A8E"/>
<path d="m1827 96.987c-0.7887 1.3605-1.5775 2.7209-2.7083 4.6712 7.373 4.7284 8.9042 15.061 17.817 19.339 3.1636 1.5187 5.0425 5.5886 7.7183 8.285 2.5227 2.542 5.369 4.7593 7.9913 7.207 8.5839 8.0125 18.53 14.123 28.476 20.185 5.0322 3.0668 10.446 5.5137 15.726 8.1653 2.3324 1.1715 4.8966 1.9299 7.1088 3.2803 2.8306 1.728 5.4154 2.1364 8.531 0.25319 1.3925 1.0708 2.3666 1.8488 3.3406 2.6266 0 6.6876 0 13.375-0.38818 20.525-14.085-5.1745-28.132-10.108-41.364-16.68-9.8346-4.8848-19.259-11.12-27.701-18.153-10.79-8.9898-20.754-19.059-30.433-29.271-9.3378-9.8521-18.149-20.244-26.67-30.819-12.006-14.9-24.719-29.04-40.069-40.573-2.8109-2.1121-6.2673-3.3648-9.6964-5.1541-1.0743-1.0459-1.8781-1.9519-2.7184-3.2164-0.85779-1.3513-1.4802-2.7213-2.5323-3.2761-6.7313-3.5494-13.628-6.7869-20.338-10.375-16.161-8.6432-32.313-17.31-48.305-26.259-2.6809-1.5002-4.5441-4.4622-6.785-6.7487 3.6929-8e-6 7.3859-8e-6 11.533 0.3834 1.4945 6.0142 4.7863 8.6732 10.695 8.6551 6.5764-0.02009 9.5935-2.5518 10.772-9.0385 2.0416 0 4.0834 0 6.5625 6e-6 1.4481 1.1717 2.2316 2.7916 3.5081 3.4386 6.0377 3.0604 12.353 5.5914 18.303 8.8033 9.9497 5.3705 20.103 10.519 29.422 16.861 10.457 7.117 20.618 14.877 29.897 23.451 7.0823 6.5439 12.623 14.765 18.781 22.296 2.332 2.8518 4.7211 5.1779 9.0906 3.5555-2.5752 10.77 2.9418 17.497 14.436 17.582z" fill="#AF1E6F"/>
<path d="m1302.5 1c1.689 1.4389 2.6279 3.4019 4.1749 4.2322 10.488 5.6288 21.152 10.928 31.667 16.508 12.879 6.8346 25.633 13.904 38.51 20.742 5.989 3.1808 12.567 5.4295 18.124 9.2093 9.8354 6.6902 19.323 13.949 28.522 21.5 7.1261 5.8491 14.206 11.977 20.185 18.942 6.8713 8.0041 12.65 16.972 18.616 25.716 2.5898 3.7954 4.4646 8.0789 6.6743 12.495-13.762-3.1191-27.533-6.5923-41.656-10.597-2.2701-3.3568-3.7528-6.649-6.1869-8.9229-8.6927-8.1205-17.172-16.63-26.738-23.615-11.969-8.7404-24.59-16.736-37.551-23.935-16.783-9.3214-34.522-16.936-51.211-26.409-15.242-8.6519-29.678-18.734-44.366-28.344-3.3188-2.1714-6.2095-4.9974-9.2971-7.522 16.688-1.3e-5 33.375-1.3e-5 50.531-8e-6m5.9343 14.062c-0.065429 2.8978-1.1163 6.2918 0.034302 8.5774 1.7343 3.4447 5.7439 3.338 8.7081 1.3701 3.4801-2.3105 3.5394-6.1777 1.3756-9.2823-2.4083-3.4555-5.9772-3.7715-10.118-0.66514z" fill="#DD3191"/>
<path d="m1251.5 1c3.5563 2.5247 6.4469 5.3506 9.7657 7.522 14.688 9.6098 29.124 19.692 44.366 28.344 16.689 9.4734 34.428 17.088 51.211 26.409 12.961 7.1985 25.581 15.194 37.551 23.935 9.5657 6.9851 18.045 15.495 26.738 23.615 2.4341 2.2739 3.9167 5.5661 5.8389 8.7536-12.09-2.6676-24.182-5.6976-36.691-9.1587-1.0366-0.45576-1.6575-0.48044-2.2782-0.50511-1.1461-0.19704-2.2922-0.39406-3.7693-1.1279-1.583-2.0596-2.5662-3.9822-4.1332-5.0367-7.1451-4.8083-14.342-9.5613-21.744-13.958-4.9261-2.9264-10.228-5.2197-15.409-8.1458-5.5964-9.9254-12.981-11.786-21.267-5.7612-6.2244-2.7687-12.543-4.7009-17.901-8.1322-15.059-9.6435-29.702-19.935-44.549-29.913-14.302-9.6113-28.691-19.093-42.955-28.76-3.6044-2.4428-6.8782-5.3733-10.304-8.0797 15.021 3e-6 30.042 3e-6 45.531 1.6e-5z" fill="#DE3B96"/>
<path d="m388.42 118.08c0.67718-1.1017 1.6213-2.6411 2.8889-2.9837 8.5339-2.3061 16.439-5.4807 23.569-11.107 6.2024-4.8949 13.606-8.2362 20.226-12.644 5.4776-3.647 10.718-7.6869 15.827-11.843 7.2877-5.9272 14.584-11.878 21.466-18.261 8.1081-7.5204 15.813-15.478 23.621-23.318 3.3648-3.3787 6.9343-6.656 9.7258-10.479 4.3918-6.0154 8.2045-12.454 12.677-19.046 11.325 2.1065 16.82 0.68285 20.584-7.3994 3.6929 0 7.3858 0 11.783 0.26989 3.555 0.96004 6.406 1.6502 9.2217 2.7297-2.9965 4.535-5.8528 8.7607-8.9403 12.81-6.9683 9.1395-14.051 18.192-21.491 27.207-7.583-2.2189-11.951-1.2171-15.615 3.5945-3.1971 4.1989-2.1357 8.7711-0.93018 13.754 0.32361 5.3038-1.1444 9.2069-4.5984 12.983-4.0194 4.3949-7.2885 9.5653-10.352 14.715-2.2062 3.708-4.731 5.793-9.4626 4.8112-9.3045-5.6765-16.431-1.8191-20.325 3.7874-4.7594 6.8528-2.8887 14.275 4.7077 20.694-8.85e-4 1.0445-0.002563 1.7407-0.004242 2.437-10.69 0.016724-21.38 0.033448-32.653-0.40351-4.4865-0.46857-8.3893-0.48346-12.292-0.49836-13.072-0.56473-26.144-1.1295-39.632-1.8102z" fill="#189ABC"/>
<path d="m1822 202.87c-6.3967-0.20235-12.793-0.40466-19.601-1.0793-0.71948-1.2009-0.84436-2.1147-1.3641-2.6295-5.3147-5.2643-10.794-10.365-16.031-15.704-7.9883-8.1435-15.824-16.437-23.72-24.67-7.2968-7.6076-14.455-15.356-21.965-22.746-2.2323-2.1968-5.447-3.3955-8.2549-5.4244-1.6547-6.6902-5.1321-11.036-12.103-12.088-0.98206-1.2148-1.7904-2.3027-2.8688-2.9151-8.8864-5.0458-17.825-10-26.739-14.998-0.42774-0.23977-0.7439-0.67395-1.1646-0.93148-12.144-7.4336-24.147-15.112-36.489-22.201-10.181-5.8484-21.141-10.396-31.067-16.619-11.052-6.9279-21.537-14.827-31.827-22.868-3.8474-3.0064-8.6698-6.0184-8.6582-12.36 0.96484-2.8749 2.7754-5.6146 2.365-7.9668-0.98401-5.64-6.6094-6.2333-12.845-1.6667-7.7633-2.3842-11.466-8.0291-13.668-15.004 7.021 0 14.042 0 21.566 0.35248 1.3134 1.782 1.9316 3.3709 2.9636 4.6169 12.492 15.082 27.549 27.384 43.801 37.983 16.238 10.591 33.322 19.886 50.039 29.743 15.136 8.925 30.706 17.199 45.303 26.932 16.489 10.993 30.136 25.453 43.392 40.092 17.805 19.663 35.546 39.347 56.138 56.229 1.5259 1.2511 1.8933 3.9153 2.7993 5.9226z" fill="#CD2182"/>
<path d="m94.912 35.204c-9.5419-5.1493-19.084-10.299-28.541-16.056 1.2152-0.78782 2.3596-1.184 3.4747-1.1139 9.5808 0.60226 19.177 1.0773 28.729 1.9946 19.243 1.848 38.517 3.5368 57.677 6.0561 22.269 2.928 44.389 6.9733 66.651 9.9597 13.913 1.8663 27.96 3.5818 41.961 3.7055 14.688 0.12981 29.441-1.281 44.081-2.8203 18.362-1.9307 36.263-6.5287 53.219-13.712 12.942-5.483 25.165-12.673 37.645-19.223 0.98355-0.51624 1.4727-1.9742 2.1917-2.9945 6.6877 6e-6 13.375 6e-6 20.497 0.347-0.81598 1.8614-1.7921 3.7942-3.3611 4.8214-9.1522 5.9915-18.182 12.244-27.739 17.528-23.987 13.264-49.745 21.433-76.858 25.443-3.5764 0.52896-7.0305 1.8853-10.926 2.8148-6.7236-3.7807-12.695-1.9504-18.852 0.84443-4.0179-0.15184-7.7715 0.21129-11.515 0.12371-7.686-0.17983-15.38-0.41441-23.046-0.96545-12.348-0.88753-24.752-1.5018-36.995-3.2193-20.068-2.8155-40.018-6.4705-60.034-9.6658-5.5313-0.88298-11.115-1.4662-16.688-2.0556-9.5053-1.0052-19.007-2.1392-28.54-2.7462-4.3064-0.2742-8.6852 0.58725-13.031 0.93346z" fill="#1182A0"/>
<path d="m494.53 1c-0.745 2.1212-1.6346 4.5326-3.2296 6.3115-5.7369 6.3982-11.699 12.595-17.602 18.844-3.7214 3.939-7.3172 8.0199-11.286 11.695-3.8673 3.5806-8.0136 6.8943-12.26 10.024-7.1893 5.2987-14.405 10.589-21.887 15.455-7.0169 4.5631-14.232 8.8835-21.657 12.739-7.7847 4.0428-15.695 8.0663-23.959 10.911-12.285 4.2289-24.89 7.5579-37.437 10.984-6.3568 1.7356-12.832 3.2109-19.348 4.1466-8.9791 1.2894-18.035 2.1047-27.081 2.8494-9.0651 0.74634-18.184 1.8723-27.233 1.5464-13.66-0.492-27.28-2.1-41.202-3.7862 2.2281-6.3969 0.23497-10.93-3.9572-14.702 9.8452 0.64291 19.239 1.495 28.652 1.8602 4.7642 0.18481 9.5595-0.68796 14.346-0.7717 10.835-0.18951 21.763 0.6592 32.487-0.48151 12.562-1.3362 25.009-4.0456 37.39-6.6998 11.271-2.4162 22.664-4.7619 33.511-8.549 20.03-6.9932 38.601-17.175 56.184-29.024 14.57-9.8187 28.468-20.52 40.03-33.907 2.5551-2.9586 4.6828-6.2864 7.0072-9.4441 6.0211 1e-6 12.042 1e-6 18.532 0z" fill="#1492B3"/>
<path d="m401.53 0.99999c-0.25034 1.0203-0.73953 2.4783-1.7231 2.9945-12.48 6.5505-24.703 13.74-37.645 19.223-16.956 7.1836-34.858 11.782-53.219 13.712-14.64 1.5394-29.392 2.9501-44.081 2.8203-14.001-0.12374-28.048-1.8392-41.961-3.7055-22.262-2.9863-44.383-7.0316-66.651-9.9597-19.16-2.5193-38.434-4.2081-57.677-6.0561-9.5526-0.91735-19.148-1.3924-28.729-1.9946-1.1151-0.070095-2.2595 0.3261-3.6677 0.83618-7.6034-3.7225-15.023-7.6196-22.177-11.957-1.4488-0.8785-1.8887-3.4206-2.8973-5.5545 1.6108-0.3588 3.3251-0.3588 5.4786 0.031957 2.037 1.4624 3.5801 3.3462 5.2426 3.4582 5.7129 0.38503 11.47 0.040747 17.206 0.17468 10.779 0.25169 21.562 0.48471 32.329 1.0241 9.4118 0.47156 18.851 0.97305 28.192 2.1468 12.598 1.5831 25.114 3.8211 37.664 5.7816 19.555 3.0547 39.175 5.7526 58.643 9.2881 14.324 2.6014 28.525 4.8527 43.185 3.8376 12.571-0.87046 25.37 0.28988 37.771-1.4999 19.958-2.8802 39.695-7.4697 58.22-15.852 4.9594-2.2439 9.3261-5.7978 13.965-8.7504 7.3542 2e-6 14.708 2e-6 22.531-4e-6z" fill="#107D9A"/>
<path d="m475.53 1c-1.8561 3.1578-3.9837 6.4856-6.5388 9.4441-11.562 13.387-25.46 24.089-40.03 33.907-17.583 11.849-36.154 22.031-56.184 29.024-10.847 3.7871-22.24 6.1328-33.511 8.549-12.381 2.6542-24.828 5.3636-37.39 6.6998-10.724 1.1407-21.652 0.29199-32.487 0.48151-4.7867 0.083733-9.582 0.95651-14.346 0.7717-9.4129-0.36512-18.807-1.2172-29.082-1.8622-2.8793 0.010002-4.8859 0.014183-7.3587 0.007934-10.259-0.20366-20.101 1.4212-29.8-1.8748-3.0194-1.0262-6.7083-0.08281-10.091-0.041077-10.338-6.4007-20.677-12.801-30.723-19.577 6.6535 0.32727 13.052 0.80493 19.358 1.8421 2.5518 0.41971 4.2554 0.73617 5.0479-2.3838 1.4696-0.004097 2.5384 0.002663 3.6504 0.38044 2.0874 1.4573 4.0445 2.7951 6.2058 3.5434 1.5022 0.52013 3.2926 0.15228 4.9414 0.31352 19.535 1.9104 39.057 3.9463 58.605 5.7144 6.0118 0.54377 12.088 0.50227 18.135 0.49274 5.7453-0.009064 11.49-0.32671 17.578-0.46011 12.404 9.4848 17.572 6.8169 26.933 0.020714 7.0494-0.45629 13.787-0.18115 20.19-1.5153 18.455-3.8455 36.642-8.7816 53.798-16.838 1.4344-0.67353 2.3847-2.3778 3.9982-3.6207 10.302 0.033451 13.28-2.4511 14.026-11.028 4.518-1.9248 8.8949-3.4564 12.726-5.8583 8.7506-5.486 17.234-11.398 25.992-16.825 5.5516 5.1589 11.24 4.6777 13.473-0.92724 1.7666-4.4355-1.0118-7.4199-3.4012-10.497 2.4567-2.7263 4.6049-5.3049 6.7531-7.8835 6.3544 4e-6 12.709 4e-6 19.532 3e-6z" fill="#148FB0"/>
<path d="m1555.5 1c2.6708 6.9752 6.3735 12.62 14.126 15.431 0.31653 8.7104 1.3716 9.6722 10.326 9.518 0.15247 6.0299 4.9749 9.0418 8.8223 12.048 10.29 8.0411 20.776 15.94 31.827 22.868 9.9261 6.2224 20.886 10.77 31.067 16.619 12.342 7.0895 24.345 14.767 36.489 22.201 0.42065 0.25753 0.73682 0.69171 1.1646 0.93148 8.9139 4.9974 17.852 9.9517 26.739 14.998 1.0784 0.61233 1.8867 1.7003 2.4244 2.9503-7.4105-1.027-11.938 3.2278-16.48 7.4471-5.0818-3.0404-10.144-6.1144-15.25-9.1133-7.988-4.6915-15.847-9.6416-24.07-13.88-5.0521-2.6038-10.803-3.8236-15.991-6.207-1.9351-0.88896-3.1624-3.3188-4.6483-5.7949 2.6493-4.3275 3.2706-8.3799 0.016967-11.4-2.376-2.2052-6.0503-4.18-9.135-4.1637-4.0588 0.021439-8.0498 2.1551-8.0072 7.5373-8.4156 0.5856-14.109-5.2611-20.38-9.1986-8.4751-5.3213-16.569-11.37-24.259-17.787-7.045-5.8792-13.665-12.359-19.88-19.119-8.8062-9.5775-17.118-19.613-25.512-29.562-1.3206-1.5653-1.9584-3.7066-2.9166-5.9525 7.683-0.37083 15.37-0.37083 23.527-0.37083z" fill="#D22284"/>
<path d="m1744.9 51.015c3.1584 1.6494 6.6149 2.9022 9.4258 5.0143 15.349 11.533 28.062 25.673 40.069 40.573 8.5215 10.575 17.333 20.967 26.67 30.819 9.6787 10.212 19.643 20.281 30.433 29.271 8.4415 7.0329 17.866 13.268 27.701 18.153 13.232 6.5724 27.279 11.505 41.364 17.148 0.38818 4.0309 0.38818 8.0555 0.19214 12.635-0.40381 0.91728-0.61133 1.2796-0.81897 1.642-4.3625-0.042969-8.7251-0.085938-13.789-0.43257-2.523-0.19183-4.3442-0.079971-6.1655 0.031891-5.7405-0.17899-11.481-0.35796-17.634-0.85437-0.43921-0.49269-0.46558-0.66794-0.49219-1.201-0.97986-2.1988-1.9596-4.0397-2.9355-6.3185 1.7438-11.936-6.9677-16.929-15.099-13.759-1.4453-1.3161-2.7115-2.3656-4.0454-3.3207-5.6605-4.0525-11.816-7.5569-16.918-12.217-11.382-10.399-22.493-21.126-33.234-32.186-8.4148-8.6642-16.375-17.809-24.059-27.134-11.635-14.119-24.235-27.169-38.54-38.63-2.9218-2.3408-8.0228-3.7012-6.7518-9.4064 4.3507-2.2146 5.0444-5.7738 4.6277-9.8274z" fill="#B51F73"/>
<path d="m378.53 1c-4.1701 2.9525-8.5368 6.5065-13.496 8.7504-18.525 8.3819-38.263 12.971-58.22 15.852-12.402 1.7898-25.2 0.62943-37.771 1.4999-14.66 1.0151-28.861-1.2362-43.185-3.8376-19.468-3.5355-39.088-6.2334-58.643-9.2881-12.55-1.9605-25.066-4.1985-37.664-5.7816-9.3408-1.1738-18.78-1.6753-28.192-2.1468-10.766-0.53944-21.55-0.77246-32.329-1.0241-5.7356-0.13393-11.493 0.21035-17.206-0.17468-1.6625-0.11205-3.2057-1.9958-4.8142-3.4582 45.01-0.39076 90.031-0.39076 135.59-0.024318 4.9877 1.8086 9.3544 3.6655 13.91 4.6084 10.176 2.106 20.397 4.122 30.689 5.502 13.737 1.8418 27.532 3.7543 41.355 4.3002 11.189 0.4419 22.518-0.56641 33.671-1.8901 11.934-1.4164 23.829-3.5447 35.549-6.207 4.6738-1.0617 8.8337-4.3858 13.228-6.68 9.0209-4e-6 18.042-4e-6 27.531-6e-6z" fill="#0E7894"/>
<path d="m1740 60.985c-0.95459 5.5628 4.1465 6.9232 7.0682 9.264 14.304 11.46 26.905 24.511 38.54 38.63 7.6843 9.3251 15.644 18.47 24.059 27.134 10.741 11.06 21.852 21.787 33.234 32.186 5.1014 4.6606 11.257 8.165 16.918 12.217 1.3339 0.95502 2.6001 2.0045 3.8904 3.6142-1.5773 3.0556-3.1472 5.5076-5.0803 8.0007-2.1715-0.15152-4.202 0.11226-5.7399-0.63622-2.7976-1.3615-5.5582-3.0338-7.8871-5.0844-13.027-11.471-25.957-23.053-38.799-34.732-1.1907-1.0827-1.5293-3.1023-2.2043-5.0571 2.2382-3.9103 3.3315-7.6585 0.59766-11.273-3.0797-4.0715-7.2731-3.7746-11.605-2.4837-3.0393-3.8534-6.0547-7.3425-9.0388-10.858-13.205-15.557-26.818-30.662-43.191-43.088-17.407-13.211-37.063-22.553-55.792-33.515-18.416-10.779-36.273-22.531-54.124-34.238-3.8348-2.5149-6.5952-6.6681-9.8505-10.067 5.355-1.8e-5 10.71-1.8e-5 16.567 0.34664 1.3951 1.5086 2.0583 3.0216 3.2158 3.7791 14.089 9.2204 28.013 18.73 42.462 27.356 14.469 8.6372 29.468 16.39 44.293 24.422 0.92834 0.50296 2.3666 0.064564 3.865 0.22791 3.0656 1.3937 5.8339 2.6237 8.6021 3.8537z" fill="#BA2076"/>
<path d="m1205.7 1c3.759 2.7064 7.0328 5.6369 10.637 8.0797 14.264 9.6666 28.653 19.148 42.955 28.76 14.847 9.9776 29.49 20.269 44.549 29.913 5.3584 3.4313 11.677 5.3636 17.728 8.4555-3.5635 5.613-2.8704 10.938-0.5 16.334-17.196-4.578-34.391-9.1561-51.865-14.317-1.7285-2.0312-3.1699-3.4886-4.6305-4.9264-4.8412-4.766-9.6893-9.5249-14.37-14.617 0.30066-3.03 1.4386-6.2605 0.35107-8.3108-1.8994-3.5812-5.7159-4.0325-9.7065-2.6156-10.509-7.4914-20.611-15.045-31.199-21.841-15.288-9.8132-31.769-17.05-49.573-21.155-2.8198-0.65022-5.3684-2.4766-8.0425-3.7592 10.021 2e-6 20.042 2e-6 30.531 0.37324 2.2772 6.7275 4.678 8.653 10.798 8.6577 6.92 0.005291 8.4771-1.3124 10.671-9.0309 0.44446 0 0.88892 0 1.6667-3e-6z" fill="#DE489C"/>
<path d="m1803.9 146.89c0.73425 1.5845 1.0729 3.604 2.2636 4.6868 12.842 11.678 25.772 23.261 38.799 34.732 2.3289 2.0506 5.0895 3.7229 7.8871 5.0844 1.5378 0.74847 3.5684 0.4847 5.7551 1.0202 2.392 8.6784 6.0292 11.986 12.589 10.376 2.804-0.68788 5.1643-3.1836 7.7262-4.8579 0.97962 1.8409 1.9594 3.6819 2.5129 5.8647-3.1014 0.59932-5.7771 0.85681-8.4526 1.1143-6.3964-0.19647-12.793-0.39296-19.83-0.95264-2.1589-0.55527-3.6768-0.74734-5.2284-1.2882-1.1965-1.7102-2.201-3.2572-3.5464-4.4045-14.604-12.453-29.609-24.462-43.776-37.391-8.797-8.0284-16.359-17.412-24.446-26.215-2.8047-3.053-5.5532-6.1592-8.27-9.291-16.837-19.41-35.634-36.428-58.129-49.232-23.071-13.131-45.915-26.666-68.783-40.15-14.35-8.4617-27.256-18.833-39.044-30.585-1.231-1.227-1.9927-2.9245-2.972-4.4037 3.3613 1.7e-5 6.7225 1.7e-5 10.576 0.34469 7.5865 6.9914 13.933 14.772 21.929 20.053 17.68 11.678 36.145 22.176 54.387 32.991 6.3964 3.7918 13.298 6.7529 19.582 10.708 10.635 6.693 21.119 13.653 31.384 20.902 15.84 11.186 28.553 25.652 41.302 40.087 3.5577 4.0284 6.1227 9.7826 12.788 10.3-1.5721 5.9011-0.13635 10.077 4.399 11.089 2.6885 0.59992 5.7198-0.33687 8.597-0.58267z" fill="#C1217B"/>
<path d="m1598.5 0.99998c1.4374 1.4792 2.1991 3.1768 3.4301 4.4037 11.788 11.751 24.694 22.123 39.044 30.585 22.869 13.484 45.712 27.019 68.783 40.15 22.495 12.803 41.292 29.821 58.129 49.232 2.7168 3.1318 5.4653 6.238 8.27 9.291 8.0867 8.8028 15.649 18.187 24.446 26.215 14.167 12.929 29.172 24.938 43.776 37.391 1.3453 1.1473 2.3499 2.6943 3.1697 4.4161-1.7458 0.61168-3.1489 0.86296-4.5519 1.1142-2.0608-0.029465-4.1216-0.058945-6.6177-0.55708-1.2097-1.4494-1.8495-2.587-2.7794-3.3868-9.7911-8.4199-19.958-16.435-29.359-25.267-9.1908-8.6346-17.696-18.01-26.342-27.21-5.2156-5.5498-10.038-11.467-15.198-17.071-5.8118-6.3122-11.331-13.012-17.817-18.56-13.406-11.469-27.117-22.552-42.906-30.866-13.617-7.1705-26.669-15.405-40.13-22.883-21.156-11.752-42.013-23.958-59.751-40.646-5.2197-4.9106-9.4521-10.871-14.137-16.35 3.3613-2.7e-5 6.7225-2.7e-5 10.542-4.4e-5z" fill="#C5217C"/>
<path d="m980 1c4.6893 0 9.3785 0 14.497 0.34756-0.16681 1.0919-0.643 1.993-1.3781 2.5558-6.2695 4.7997-12.342 9.9152-18.952 14.196-7.6671 4.9645-15.883 9.0731-23.718 13.791-2.085 1.2555-3.6464 3.3806-5.7969 5.1099-1.1295 0.3747-1.9103 0.74603-3.1428 1.1889-3.8038-0.064781-7.1558-0.20108-10.519-0.71682-1.3569-1.3637-2.5712-2.6748-4.0702-3.2752-6.2185-2.4906-12.95-4.0135-18.706-7.2797-11.66-6.6169-22.847-14.075-34.125-21.349-1.6558-1.0679-2.7392-3.0234-4.0875-4.5682 29.354-2e-6 58.708-2e-6 88.544 0.3747 2.6684 3.7161 4.6827 7.193 7.1386 10.324 0.83014 1.0583 2.8831 1.9099 4.197 1.7044 5.3747-0.84074 9.7225-6.4248 10.12-12.403z" fill="#DD3392"/>
<path d="m1151.5 1c3.1427 1.2826 5.6913 3.109 8.5111 3.7592 17.804 4.1052 34.285 11.342 49.573 21.155 10.588 6.7962 20.69 14.349 30.989 22.127-0.86499 3.358-1.7094 6.1532-2.9047 8.9191-2.7364-1.7804-5.2195-3.414-7.4919-5.3013-19.438-16.144-40.726-29.089-65.042-36.358-9.4532-2.8259-19.245-4.9521-29.035-6.0888-8.7024-1.0105-17.655-0.73276-26.422-0.054638-7.6263 0.58988-15.148 2.5344-23.143 3.8687-7.7335-0.044457-9.0587 0.95699-10.025 6.9655-11.052 5.1773-21.774 10.241-32.334 15.622-1.4908 0.75966-2.1932 3.0667-3.2605 4.6575-4.0089-0.033908-8.0178-0.067825-12.49-0.59704-1.1481-4.2106-1.833-7.9258-2.1396-11.655 1.8911-0.61346 3.5482-0.98689 4.8949-1.8465 13.82-8.8211 28.122-16.598 43.909-21.418 2.142-0.65405 3.9281-2.4741 5.8789-3.7542 23.354-2e-6 46.708-2e-6 70.531-4e-6z" fill="#DE4F9F"/>
<path d="m1587.5 1c5.1389 5.4791 9.3713 11.439 14.591 16.35 17.738 16.688 38.595 28.894 59.751 40.646 13.461 7.4777 26.513 15.713 40.13 22.883 15.789 8.3146 29.5 19.398 42.906 30.866 6.4864 5.5489 12.005 12.248 17.817 18.56 5.1599 5.6042 9.9825 11.522 15.198 17.071 8.6462 9.2002 17.151 18.575 26.342 27.21 9.401 8.832 19.568 16.847 29.359 25.267 0.92993 0.79985 1.5697 1.9374 2.3619 3.2464-4.3618 0.22134-8.7413 0.11444-13.561-0.11046-1.3461-2.1253-1.7135-4.7895-3.2394-6.0406-20.593-16.883-38.333-36.566-56.138-56.229-13.256-14.639-26.903-29.099-43.392-40.092-14.597-9.7325-30.167-18.007-45.303-26.932-16.717-9.8569-33.8-19.153-50.039-29.743-16.252-10.6-31.309-22.901-43.801-37.983-1.032-1.246-1.6503-2.8349-2.4951-4.6169 2.9965-0.35248 6.027-0.35248 9.5117-0.35245z" fill="#C8217F"/>
<path d="m725 1c28.354-3e-6 56.708-3e-6 85.586 0.35051 2.1265 1.404 3.6072 2.7697 5.3548 3.4568 7.4874 2.9441 15.118 5.5312 22.553 8.5962 2.3942 0.98694 4.3484 3.0409 6.091 4.5529-8.5055-2.6582-15.505-0.74178-21.97 5.0555-2.4845-0.51138-4.5553-1.0513-6.6428-1.5162-11.251-2.5061-22.403-6.3077-33.783-7.2059-21.751-1.7169-43.171 0.8907-63.625 10.724-6.7776-0.42459-13.104-0.90113-19.775-1.5618-3.4946-0.64449-6.6446-1.1049-9.752-1.9082 0.87329-1.3315 1.5091-2.6868 2.5665-3.2489 6.6919-3.5572 13.487-6.9187 20.228-10.386 4.4078-2.2672 8.7803-4.6035 13.169-6.9088z" fill="#DD459B"/>
<path d="m350.53 1c-3.9252 2.2942-8.0851 5.6183-12.759 6.68-11.72 2.6623-23.614 4.7906-35.549 6.207-11.153 1.3237-22.482 2.332-33.671 1.8901-13.823-0.54593-27.618-2.4584-41.355-4.3002-10.293-1.38-20.514-3.396-30.689-5.502-4.5558-0.94291-8.9225-2.7999-13.442-4.6084 55.621-0.36644 111.31-0.36644 167.46-0.36644z" fill="#0D738E"/>
<path d="m304 51.998c3.5107-0.97316 6.9648-2.3295 10.541-2.8585 27.113-4.0101 52.871-12.179 76.858-25.443 9.5572-5.2848 18.587-11.537 27.739-17.528 1.569-1.0271 2.5451-2.96 3.8296-4.8214 5.0566-0.34699 10.079-0.34699 15.533 0.006279-2.6957 3.436-5.6348 6.7429-8.9855 9.5602-10.906 9.1695-22.467 17.381-36.028 23.136-7.4554-1.0167-12.465 2.7116-13.833 9.9991-3.9022 1.9917-7.3364 4.2286-11.054 5.7904-4.3948 1.8461-9.0107 3.1856-13.573 4.6109-14.336 4.4792-28.64 9.1661-44.13 8.2203-2.4053-3.772-4.6509-7.2219-6.8965-10.672z" fill="#1287A6"/>
<path d="m1791 136c-6.704-0.13115-9.2689-5.8854-12.827-9.9138-12.749-14.435-25.462-28.901-41.302-40.087-10.264-7.2489-20.749-14.209-31.384-20.902-6.2843-3.9549-13.186-6.9159-19.582-10.708-18.242-10.815-36.707-21.313-54.387-32.991-7.9965-5.2817-14.343-13.062-21.471-20.053 3.3276-0.34467 6.6888-0.34467 10.508-0.34466 3.7133 3.3985 6.4736 7.5517 10.308 10.067 17.852 11.707 35.709 23.46 54.124 34.238 18.728 10.962 38.385 20.304 55.792 33.515 16.373 12.426 29.986 27.531 43.191 43.088 2.9841 3.5157 5.9995 7.0048 8.9077 11.121-0.68811 1.4004-1.2831 2.186-1.8782 2.9717z" fill="#BE2078"/>
<path d="m1731.1 56.967c-1.201 4.39e-4 -2.6393 0.43883-3.5676-0.064125-14.825-8.032-29.824-15.785-44.293-24.422-14.449-8.6254-28.373-18.135-42.462-27.356-1.1575-0.75754-1.8207-2.2705-2.7483-3.7791 8.3196-0.34666 16.674-0.34666 25.497-0.34665 2.7096 2.2865 4.5728 5.2485 7.2537 6.7487 15.992 8.9489 32.144 17.616 48.305 26.259 6.7096 3.5884 13.606 6.8258 20.338 10.375 1.0521 0.55476 1.6746 1.9247 2.1565 3.232-7.056-1.545-10.505 1.5299-10.479 9.3525z" fill="#B51F73"/>
<path d="m869.53 1c1.8169 1.5448 2.9003 3.5003 4.5561 4.5682 11.278 7.2735 22.465 14.732 34.125 21.349 5.7557 3.2662 12.488 4.7891 18.706 7.2797 1.499 0.60039 2.7133 1.9115 3.6093 3.3687-7.4765 0.22414-14.504-0.024627-21.64-0.53392-1.0491-0.14932-1.9888-0.038109-3.3898 0.13405-5.165-0.001735-9.8689-0.064426-14.933-0.21784-1.0933-0.2046-1.8262-0.31848-2.5685-0.77122-2.4774-2.6036-4.6803-5.2825-7.4592-7.0621-12.782-8.1853-25.748-16.083-38.579-24.192-1.5333-0.96898-2.649-2.5987-3.9583-3.9222 10.354-1.6e-5 20.708-1.6e-5 31.531-1.4e-5z" fill="#DE3B96"/>
<path d="m945 36.996c1.8018-1.7259 3.3631-3.8511 5.4481-5.1065 7.835-4.7177 16.051-8.8263 23.718-13.791 6.6107-4.2805 12.683-9.3961 18.952-14.196 0.73511-0.56281 1.2113-1.464 1.8443-2.5558 8.0577-0.34756 16.079-0.34756 24.533 0.00127-0.23468 1.2657-0.73102 2.4087-1.5964 3.065-10.123 7.6764-20.509 15.025-30.361 23.031-3.7885 3.0785-6.3958 7.6103-10.004 11.558-8.8203-0.11553-17.177-0.30874-25.668-0.83368-2.3776-0.61188-4.6216-0.89203-6.8656-1.1722z" fill="#DE3B96"/>
<path d="m724.53 1c-3.9197 2.3053-8.2922 4.6416-12.7 6.9088-6.7404 3.467-13.536 6.8285-20.228 10.386-1.0574 0.56209-1.6932 1.9173-2.9967 3.3161-10.853-0.76949-21.233-1.9492-31.408-3.3798 2.1244-2.6044 3.9251-5.0689 5.9917-7.2857 3.1738-3.4045 6.5305-6.6387 9.8095-9.9451 17.021-6e-6 34.042-6e-6 51.531-3e-6z" fill="#DE3B96"/>
<path d="m1080.5 1c-1.4822 1.2801-3.2683 3.1001-5.4103 3.7542-15.786 4.8205-30.089 12.597-43.909 21.418-1.3467 0.85959-3.0038 1.233-5.1842 1.6883-4.1223-2.7244-7.5772-5.305-10.992-8.2352 4.34-3.2708 8.6392-6.1932 12.94-9.1128 4.6735-3.1724 9.349-6.342 14.024-9.5129 12.688 1.1e-5 25.375 1.1e-5 38.531 1.3e-5z" fill="#DD459B"/>
<path d="m393.91 34.052c13.138-5.7575 24.699-13.969 35.605-23.138 3.3507-2.8173 6.2898-6.1242 9.4523-9.5602 5.3899-0.35327 10.745-0.35327 16.567-0.35327-1.6806 2.5786-3.8288 5.1572-6.705 7.8845-8.3271 0.18221-9.8952 2.0735-9.8179 11.112-8.592 5.7389-17.075 11.651-25.826 17.137-3.8313 2.402-8.2083 3.9335-12.786 5.5055-2.4623-3.0988-4.476-5.8427-6.4896-8.5867z" fill="#138BAB"/>
<path d="m837.53 1c1.7779 1.3235 2.8936 2.9532 4.4269 3.9222 12.831 8.1092 25.797 16.007 38.579 24.192 2.7789 1.7796 4.9818 4.4586 7.0392 7.1686-4.1267 0.33815-7.8425 0.23096-11.932 0.013931-2.1375-0.37183-3.9013-0.63384-5.6783-1.2847-4.1985-3.9498-8.1719-7.8109-12.642-10.968-3.0894-2.1822-6.8654-3.3925-10.593-5.1434-0.75006-0.36765-1.242-0.62888-1.7339-0.89012-2.1555-1.5658-4.1097-3.6197-6.5039-4.6067-7.4351-3.065-15.066-5.6521-22.553-8.5962-1.7476-0.68713-3.2283-2.0528-4.8862-3.4568 8.6332-0.35051 17.321-0.35051 26.477-0.3505z" fill="#DA4098"/>
<path d="m672.53 1c-2.8104 3.3065-6.1671 6.5406-9.3409 9.9451-2.0666 2.2167-3.8672 4.6813-6.2097 7.2806-0.42267 0.2458-0.84351 0.36083-1.2114 0.16591-6.3428-0.97762-12.33-1.6774-18.289-2.5673-5.5114-0.82306-10.993-1.8497-16.299-3.0632 4.1385-3.484 9.0795-5.8608 9.8185-11.761 13.688 0 27.375 0 41.531 6e-6z" fill="#DD3392"/>
<path d="m1041.5 0.99999c-4.2061 3.1708-8.8816 6.3405-13.555 9.5129-4.301 2.9195-8.6002 5.842-13.393 9.1167-14.515-1.1296-22.341 7.2596-22.083 19.607-5.142-0.066479-9.8225-0.18913-14.503-0.31179 3.1456-3.8696 5.7529-8.4014 9.5414-11.48 9.8524-8.0061 20.238-15.355 30.361-23.031 0.86542-0.65626 1.3618-1.7992 2.0651-3.065 7.0565-0.34883 14.077-0.34883 21.567-0.34884z" fill="#DA4098"/>
<path d="m630.54 1c-0.28094 5.9004-5.2219 8.2772-9.7334 11.815-1.3107 0.3564-2.0604 0.38239-3.2146 0.27071-8.4078-1.3138-16.411-2.4899-24.769-3.8221-11.165-1.9885-21.975-3.821-32.785-5.6535-2.851-0.69015-5.702-1.3803-8.7963-2.3403 17.111-0.26989 34.465-0.26989 52.504 0.018354 7.2058 3.7996 11.866 3.627 16.253-0.28824h10.542z" fill="#D72C8F"/>
<path d="m1473.6 1c-2.246 8.1432-6.1381 11.71-12.674 11.998-7.4045 0.32553-9.9619-1.7619-13.86-11.636 1.3401-0.36198 2.729-0.36198 4.5662-0.005052 1.7535 4.5489 4.7629 7.5734 8.9177 7.3092 4.1451-0.26359 7.7633-2.7717 8.4673-7.6662h4.5834z" fill="#E554A8"/>
<path d="m979.6 1c0.002014 5.9778-4.3458 11.562-9.7205 12.403-1.3139 0.20553-3.3669-0.6461-4.197-1.7044-2.4559-3.1305-4.4702-6.6074-6.6699-10.324 1.3763-0.3747 2.7651-0.3747 4.5966-0.019543 2.4647 2.5511 4.4868 4.747 6.5088 6.9429 1.9606-2.4327 3.9213-4.8654 5.8819-7.298 1.0667 5e-6 2.1334 5e-6 3.6 5e-6z" fill="#E060A7"/>
<path d="m538.58 1c-3.3476 8.0823-8.842 9.5059-20.166 7.0099-2.3869-2.1479-4.3607-4.239-6.376-6.67 1.6727-0.33993 3.387-0.33993 5.6874-0.024367 7.1684 5.0238 8.8566 4.9558 16.271-0.31556h4.5834z" fill="#4AB4CE"/>
<path d="m1696.6 1c-0.76148 6.4867-3.7786 9.0184-10.355 9.0385-5.9087 0.01805-9.2004-2.641-10.234-8.6551 1.0725-0.38341 2.1393-0.38341 3.7571-0.075126 6.0714 6.4227 9.3948 6.2475 12.249-0.30828h4.5834z" fill="#C14D90"/>
<path d="m1203.6 1c-1.7773 7.7185-3.3344 9.0362-10.254 9.0309-6.1198-0.00468-8.5205-1.9302-10.329-8.6577 1.0668-0.37323 2.1335-0.37323 3.7501-0.064333 6.0956 6.4071 9.3973 6.2327 12.25-0.3089h4.5834z" fill="#E571B4"/>
<path d="m1468.5 1c-0.23645 4.8944-3.8546 7.4026-7.9998 7.6662-4.1548 0.2642-7.1642-2.7603-8.501-7.3092 5.3232-0.35693 10.678-0.35693 16.501-0.35693z" fill="#DD258C"/>
<path d="m975.54 1c-1.5 2.4327-3.4606 4.8653-5.4213 7.298-2.0221-2.1959-4.0441-4.3918-6.0922-6.9429 3.667-0.35516 7.3599-0.35516 11.513-0.35516z" fill="#DD3392"/>
<path d="m1198.5 1c-2.392 6.5416-5.6937 6.716-11.389 0.3089 3.5428-0.3089 7.2358-0.3089 11.389-0.3089z" fill="#DE489C"/>
<path d="m533.53 1c-6.9474 5.2714-8.6356 5.3393-15.376 0.31556 4.8645-0.31556 9.8866-0.31556 15.376-0.31556z" fill="#1C9DC0"/>
<path d="m1691.5 1c-2.3933 6.5558-5.7167 6.731-11.388 0.30828 3.5416-0.30828 7.2346-0.30828 11.388-0.30828z" fill="#AF1E6F"/>
<path d="m619.53 1c-3.9197 3.9152-8.5803 4.0878-15.317 0.28824 4.8063-0.28824 9.8284-0.28824 15.317-0.28824z" fill="#E554A8"/>
<path d="m1921 170.54c-0.974-0.31982-1.9481-1.0977-2.9845-2.2113 0.7323-2.8969 1.5269-5.458 2.653-8.1749 0.33154 3.2056 0.33154 6.5669 0.33154 10.386z" fill="#C14D90"/>
<path d="m1920.2 206.47c-0.036743-0.55769 0.17078-0.92006 0.57458-1.3741 0.19604 0.35271 0.19604 0.79716 0.19604 1.5749-0.17554 0.2204-0.35095 0.10748-0.77063-0.20079z" fill="#C1217B"/>
<path d="m560 3.9996c10.846 1.4432 21.656 3.2756 32.759 5.6553-0.86719 2.1209-1.889 3.8223-3.2094 5.2471-7.2657 7.8404-15.244 15.116-21.771 23.523-10.302 13.27-20.11 26.983-29.237 41.084-6.3691 9.8401-11.353 20.591-16.699 31.066-0.93457 1.8313-0.59509 4.3129-0.84406 6.4941-1.4302 0.27256-2.8604 0.54512-4.817 0.60209-1.0817-0.009964-1.637 0.19567-2.1924 0.40131-2.0837 0.24012-4.1674 0.48022-6.849 0.48933-1.449 0.019142-2.3002 0.26927-3.1515 0.5194-1.5901 0.12448-3.1801 0.24896-5.6207 0.21646-3.7324 0.34052-6.6144 0.83802-9.4963 1.3355-1.0095 0.065651-2.019 0.13132-3.4439-0.12496-0.46741-0.71393-0.51941-1.1059-0.23856-1.6207 10.452-6.0001 11.677-14.873 3.75-24.864 4.4032 0.83211 6.9279-1.2529 9.1342-4.9609 3.0639-5.1496 6.3329-10.32 10.352-14.715 3.454-3.7766 4.922-7.6797 4.899-12.817 6.0306 4.7326 10.168 5.7439 14.487 3.1944 8.6469-5.1043 9.3323-11.65 2.1611-20.637 7.0362-9.0878 14.119-18.14 21.087-27.28 3.0875-4.0495 5.9438-8.2752 8.9403-12.81z" fill="#1C9DC0"/>
<path d="m618 13.223c0.7497-0.025987 1.4994-0.051973 2.6221-0.13183 5.8674 0.8831 11.349 1.9097 16.86 2.7328 5.9589 0.88988 11.946 1.5897 18.23 2.9511-1.3162 2.1059-2.8024 3.8231-4.5891 5.1292-11.481 8.3923-23.6 16.02-34.411 25.192-14.467 12.274-26.108 27.251-35.74 43.619-2.868 4.8737-4.5872 10.423-6.8328 15.663-9.7692 1.8559-19.538 3.7118-29.725 5.1362-0.37012-1.0938-0.52191-1.857-0.245-2.4029 3.879-7.6476 7.6965-15.331 11.78-22.869 2.98-5.5017 6.0103-11.027 9.5936-16.138 4.4407-6.3343 9.504-12.23 14.248-18.354 9.9946-12.902 21.483-24.251 34.533-34.084 1.8141-1.3668 2.4795-4.2584 3.6766-6.4441z" fill="#24A3C5"/>
<path d="m574.56 108.38c1.8219-5.2405 3.5411-10.79 6.4091-15.664 9.6323-16.368 21.273-31.346 35.74-43.619 10.812-9.1725 22.931-16.8 34.411-25.192 1.7867-1.3061 3.2729-3.0234 4.957-4.9343 0.05896-0.38382 0.4798-0.49885 0.69782-0.49383 10.598 1.1848 20.978 2.3645 31.788 3.477 3.5802 0.39312 6.7302 0.85349 10.15 1.8807-1.8137 1.747-3.8294 3.0722-5.9921 4.0831-11.316 5.2892-23.119 9.7162-33.904 15.918-16.365 9.4107-31.562 20.586-43.269 36.203-3.1808 0.3426-6.1679 0.10785-8.624 1.1385-8.8066 3.6958-11.101 10.404-7.9423 21.788-7.9994 1.805-15.999 3.6101-24.422 5.4146z" fill="#2BA8C9"/>
<path d="m617.59 13.086c-0.79266 2.3234-1.458 5.215-3.2722 6.5818-13.051 9.8327-24.539 21.182-34.533 34.084-4.7441 6.1241-9.8074 12.02-14.248 18.354-3.5833 5.1113-6.6136 10.636-9.5936 16.138-4.0833 7.5385-7.9007 15.221-11.78 22.869-0.27692 0.5459-0.12512 1.3092-0.17285 2.3454-2.3949 0.79277-4.7897 1.2116-7.7278 1.3634-1.1216 0.023842-1.6998 0.31461-2.278 0.60538-4.0401 0.58488-8.0802 1.1698-12.553 1.6986-0.18378-2.2373-0.52326-4.7188 0.41132-6.5502 5.3458-10.475 10.33-21.226 16.699-31.066 9.1272-14.101 18.935-27.815 29.237-41.084 6.5267-8.4069 14.505-15.683 21.771-23.523 1.3204-1.4248 2.3422-3.1263 3.5638-5.0911 8.0652 0.78504 16.068 1.9612 24.476 3.2749z" fill="#1FA0C2"/>
<path d="m661.02 88.15c-0.80719 0.26324-1.6144 0.52648-2.8846 0.55917-1.0279 0.082077-1.5926 0.3947-2.1573 0.70732-9.3717 2.3043-18.743 4.6086-28.539 6.507-0.44202-1.9043-0.46027-3.4027-0.10889-4.9123 1.6397-0.68021 3.1125-1.1243 4.1456-2.0561 5.0325-4.5393 9.9101-9.2498 14.915-13.82 4.489-4.0995 9.0723-8.0959 13.942-11.991 6.9101 3.9961 11.227 3.5031 14.351-1.6594 1.0118-1.672 1.53-3.6427 2.6839-5.4788 2.1256-0.44309 3.9612-0.62728 5.5386-1.3641 18.853-8.8066 38.703-13.711 59.44-14.575 24.253-1.0103 47.385 4.6485 69.838 13.258 3.2917 1.2621 5.8993 4.3082 8.8234 6.5289-4.7336 0.67514-9.4671 1.3503-14.857 1.7593-1.6962-1.3866-2.9743-2.3661-3.7355-3.6518-3.2116-5.4249-7.7834-7.8198-14.161-8.1007-6.1548-0.27113-9.6249 3.3293-13.685 7.0755-1.5252-0.33802-2.6293-0.80925-3.7614-0.89107-13.448-0.97185-26.821-1.8686-40.37-0.19584-23.366 2.8848-44.425 11.182-63.396 24.887-2.4924 1.8005-4.0381 4.9113-6.0222 7.4153z" fill="#3DB4D3"/>
<path d="m1041.3 40.471c0.72363-1.7899 1.426-4.097 2.9169-4.8566 10.56-5.381 21.282-10.445 32.358-15.232 0.16186 4.1405 2.603 6.2258 5.6819 6.3246 4.1401 0.13292 7.1354-2.2132 8.2256-6.7099 10.118-0.99776 19.794-2.7537 29.474-2.777 9.1718-0.022093 18.369 1.6139 27.517 2.8046 14.122 1.8379 27.187 7.0663 39.687 13.57 14.733 7.6649 28.42 16.966 40.431 28.532 1.7815 1.7157 2.9541 4.0637 4.4084 6.1192-8.4132-2.1494-16.826-4.2988-25.678-6.9261-12.823-12.872-28.139-20.602-44.388-25.964-18.55-6.1217-37.888-8.7357-57.384-5.2096-9.8724 1.7855-19.501 4.9802-29.16 7.8127-1.3712 0.40212-2.2843 2.3663-3.4094 3.6075-4.3613-0.14231-8.7225-0.28463-13.788-0.7722-3.1803-0.21579-5.6564-0.08635-8.1324 0.043095-2.8058-0.055382-5.6116-0.11076-8.7609-0.36526z" fill="#DE58A3"/>
<path d="m95.111 35.475c4.1466-0.61745 8.5254-1.4789 12.832-1.2047 9.5332 0.60701 19.035 1.741 28.54 2.7462 5.5733 0.58939 11.156 1.1726 16.688 2.0556 20.016 3.1953 39.966 6.8503 60.034 9.6658 12.242 1.7175 24.647 2.3318 36.995 3.2193 7.6662 0.55104 15.36 0.78562 23.046 0.96545 3.7432 0.087577 7.4969-0.27555 11.357 0.17-1.4919 4.0348-3.0951 7.4649-5.1573 10.899-16.565-0.3285-32.681-0.40151-48.771-1.0993-8.3872-0.36376-16.735-1.7648-25.085-2.8147-7.5219-0.94569-15.024-2.0515-22.556-3.4756-0.87669-5.6229-3.9064-9.2873-8.378-9.3654-4.5676-0.079777-8.4079 1.7017-10.107 6.7606-8.7508-1.1386-17.039-2.4442-25.37-3.3577-5.2028-0.57046-10.624-2.4021-15.542 1.2238-9.4419-5.3723-18.884-10.745-28.525-16.388z" fill="#1287A6"/>
<path d="m821.43 59.916c-3.3482-2.2841-5.9558-5.3302-9.2475-6.5923-22.453-8.6092-45.586-14.268-69.838-13.258-20.736 0.86378-40.587 5.7683-59.44 14.575-1.5775 0.73686-3.413 0.92104-5.6666 1.0522-1.7808-2.4322-3.0237-4.5545-3.9328-6.8222 1.8665-0.75576 3.4074-1.3461 4.9302-1.9798 13.248-5.5127 26.45-11.318 40.789-13.298 9.6016-1.3257 19.333-1.6929 28.99-2.6553 1.7038-0.16981 3.3259-1.1595 5.3882-1.8644 3.4166 0.52813 6.4146 1.5761 9.4479 1.6917 8.8232 0.33625 17.669 0.094319 26.489 0.47805 6.2305 0.27108 12.433 1.1916 18.661 2.2412 1.4797 1.7763 2.7286 3.5931 4.4515 4.4089 6.4084 3.0344 13.21 5.3075 19.398 8.7142 4.4383 2.4436 8.1328 6.238 12.149 9.6314-0.057495 0.46547-0.099609 0.73017-0.13641 0.99572-7.3363 0.91507-14.673 1.8301-22.433 2.6818z" fill="#38AFCF"/>
<path d="m1232.3 68.423c-1.7657-2.2338-2.9384-4.5819-4.7198-6.2976-12.011-11.566-25.698-20.867-40.431-28.532-12.5-6.5033-25.566-11.732-39.687-13.57-9.1488-1.1907-18.346-2.8267-27.517-2.8046-9.6801 0.023315-19.356 1.7792-29.488 2.4143-1.4583-2.4413-2.462-4.5187-3.4658-6.596 7.5679-1.3459 15.089-3.2904 22.716-3.8803 8.7672-0.67812 17.72-0.95582 26.422 0.054638 9.7897 1.1367 19.582 3.2629 29.035 6.0888 24.316 7.269 45.604 20.214 65.042 36.358 2.2725 1.8873 4.7555 3.5209 7.7963 5.4598 3.9573 3.9478 7.5834 5.5528 12.001 1.8932 4.8455 4.7616 9.6936 9.5205 14.535 14.287 1.4606 1.4379 2.902 2.8953 4.3303 4.7254-12.1-2.8863-24.178-6.1542-36.568-9.6004z" fill="#DE53A1"/>
<path d="m1072.3 41.694c0.78601-1.3702 1.6991-3.3344 3.0703-3.7365 9.6583-2.8325 19.287-6.0272 29.16-7.8127 19.496-3.5261 38.833-0.91214 57.384 5.2096 16.249 5.3623 31.565 13.092 44.024 25.78-12.228-2.4887-24.456-5.6771-36.852-7.9515-16.012-2.9379-32.158-5.1453-48.783-8.0784-1.4489-0.34797-2.3614-0.28481-3.2739-0.22165-1.7292-0.075893-3.4586-0.15179-5.725-0.64725-2.1112-0.40978-3.6852-0.4-5.2593-0.39022-2.7466-0.18295-5.493-0.3659-8.8392-0.92643-2.1113-0.29832-3.6232-0.21906-5.1349-0.1398-3.7499-0.1987-7.4999-0.3974-11.891-0.94644-2.4609-0.25939-4.2802-0.16844-6.0995-0.077484-0.47986 0.022602-0.95984 0.045201-1.7789-0.06126z" fill="#E060A7"/>
<path d="m661.44 88.167c1.562-2.5208 3.1077-5.6316 5.6001-7.4321 18.971-13.705 40.031-22.002 63.396-24.887 13.548-1.6728 26.922-0.77601 40.37 0.19584 1.1321 0.081822 2.2362 0.55305 3.7237 1.2685-0.2851 3.3533-0.94055 6.2814-1.596 9.2094-14.555 2.5943-29.153 4.9731-43.656 7.8327-22.506 4.4375-44.947 9.2026-67.837 13.812z" fill="#48BAD8"/>
<path d="m1731.1 130.99c2.7645 1.6561 5.9792 2.8547 8.2115 5.0515 7.51 7.3907 14.668 15.139 21.965 22.746 7.8967 8.2333 15.732 16.527 23.72 24.67 5.2372 5.339 10.716 10.44 16.031 15.704 0.51978 0.51485 0.64465 1.4286 0.95837 2.522-1.3865 0.39826-2.7784 0.43169-4.7825 0.13377-1.7943-0.23422-2.9762-0.13708-4.1582-0.039947-3.0792-0.19894-6.1586-0.39787-9.6453-0.70696-1.0417-1.5634-1.3323-3.3467-2.3627-4.4196-11.991-12.487-24.104-24.856-36.163-37.278-5.1621-5.318-10.272-10.687-15.623-16.598 0.47119-4.3057 1.1595-8.0457 1.8478-11.786z" fill="#D22284"/>
<path d="m844.01 56.037c-4.0264-3.1918-7.7209-6.9862-12.159-9.4297-6.1876-3.4067-12.99-5.6798-19.398-8.7142-1.7229-0.8158-2.9718-2.6326-3.9942-4.3751 4.136-0.43664 7.8279-0.4881 11.929-0.45947 1.7928 0.099881 3.1769 0.11969 4.9149 0.34449 8.471 0.59013 16.588 0.97526 25.109 1.4645 1.7932 0.093742 3.1818 0.083355 5.0305 0.17054 5.1534 0.18609 9.8468 0.27461 14.54 0.36313 1.7639 0.262 3.5277 0.52401 5.5877 1.225-4.4002 6.327-2.1989 11.779 1.3511 17.147-3.692 0.38776-7.3841 0.77553-11.634 0.9488-1.1776-0.003074-1.7977 0.20835-2.4178 0.41976-2.3293 0.27317-4.6586 0.54635-7.5651 0.60053-1.1985 0.023377-1.8198 0.26574-2.441 0.50812-1.9988 0.24049-3.9976 0.48097-6.6012 0.47449-1.1539-0.39381-1.7031-0.54065-2.2522-0.6875z" fill="#2BA8C9"/>
<path d="m977.53 39.002c5.1437 0.044975 9.8242 0.16763 15.239 0.46272 1.9191 0.28443 3.1046 0.39643 4.29 0.50842-12.953 1.855-25.869 4.0341-38.866 5.493-22.406 2.515-44.862 4.5819-67.629 6.4768 3.9297-5.0168 2.5081-9.9435 0.35834-14.905 4.7038 0.062695 9.4077 0.12539 14.831 0.32247 1.5599 0.066639 2.4005-0.001121 3.241-0.068878 7.0272 0.24877 14.054 0.49754 21.543 0.65284 3.813 0.042824 7.165 0.17913 11.311 0.45014 3.9121 0.12494 7.0305 0.11517 10.149 0.1054 8.3572 0.19321 16.714 0.38642 25.535 0.50194z" fill="#2BA8C9"/>
<path d="m1343 81.995c5.1339 2.5766 10.436 4.8699 15.362 7.7963 7.4017 4.3971 14.599 9.1501 21.744 13.958 1.567 1.0546 2.5502 2.9771 3.8381 4.8396-13.483-3.0052-27.004-6.3421-40.518-9.7043-1.9303-0.4802-3.8301-1.0833-6.0624-2.122 2.9674-4.7083 7.0188-8.6048 5.6362-14.768z" fill="#DD459B"/>
<path d="m123.84 52.098c4.7188-3.8607 10.139-2.0291 15.342-1.4586 8.3309 0.91343 16.619 2.219 25.379 3.7858 0.48202 8.0554 1.401 9.5219 7.4385 11.574-0.3918 3.1091-2.0953 2.7927-4.6472 2.3729-6.3061-1.0372-12.704-1.5148-19.582-2.1247-8.2544-4.5763-15.992-9.2452-23.93-14.149z" fill="#138BAB"/>
<path d="m178.92 86.383c3.1709-0.31715 6.8598-1.2605 9.8792-0.23434 9.6982 3.296 19.541 1.6711 29.717 2.2182-5.119 4.6446-5.7214 6.8956-3.4263 14.593-0.3466 0.44682-0.69321 0.89362-1.0681 1.6365-11.649-5.7819-23.27-11.86-35.102-18.213z" fill="#1492B3"/>
<path d="m1022 39.931c-5.3617-0.018688-10.723-0.037376-16.854-0.35397-2.6983-0.50275-4.6274-0.7076-6.4764-0.90393-1.0876-5.4507 0.88971-10.006 5.338-12.677 4.9112-2.9486 8.6738-2.6645 13.207 0.72823 4.1445 3.102 7.1374 9.0542 4.7861 13.207z" fill="#DE489C"/>
<path d="m1343 81.646c1.4297 6.5127-2.6217 10.409-5.9347 14.971-5.2074-0.96862-10.388-2.2834-15.787-3.8366-2.5891-5.6345-3.2822-10.96 0.62549-16.42 8.1155-6.4999 15.5-4.6395 21.096 5.2859m-11.471 10.349c1.2445-0.38204 2.8402-0.40628 3.6653-1.2158 2.1421-2.102 5.0038-4.1269 3.1134-7.9183-2.1552-4.3227-5.9287-6.2324-10.123-4.7122-3.6946 1.3392-5.3304 4.6936-3.9042 7.9291 1.0765 2.4414 4.2363 3.9643 7.2482 5.9173z" fill="#E571B4"/>
<path d="m1022.3 39.997c1.9971-4.2183-0.99585-10.171-5.1403-13.273-4.5328-3.3927-8.2954-3.6768-13.207-0.72823-4.4483 2.6707-6.4257 7.2264-5.338 12.677 1.849 0.19633 3.7781 0.40118 6.011 0.84534-2.0441 0.34344-4.3917 0.44754-7.1743 0.50319-1.6204-0.16045-2.8058-0.27245-4.2636-0.61306-0.992-12.52 6.8345-20.909 21.309-19.43 3.908 2.5766 7.3629 5.1572 11.107 7.8959 0.97412 3.8735 1.6591 7.5887 2.3485 11.731-1.7633 0.43697-3.531 0.44659-5.653 0.39046z" fill="#E571B4"/>
<path d="m621.92 97.713c-5.6917 1.3883-11.383 2.7766-17.531 3.7548-3.4818-8.5093-2.2917-13.279 3.3126-15.514 7.9097-3.1548 14.475 2.2746 14.219 11.759z" fill="#34ADCD"/>
<path d="m622.26 97.752c-0.084168-9.524-6.6491-14.953-14.559-11.799-5.6043 2.2353-6.7944 7.0046-3.7097 15.47-1.3776 0.79656-2.8143 1.2272-4.628 1.5999-3.5352-11.441-1.2413-18.15 7.5654-21.845 2.4561-1.0307 5.4431-0.79592 8.8306-0.87061 5.8984 1.9982 8.7222 6.1819 11.2 10.715 0.018249 1.4984 0.036499 2.9967 0.059143 4.9536-1.47 0.91099-2.9444 1.3635-4.7591 1.7765z" fill="#5FC1D9"/>
<path d="m890.57 36.948c2.5099 5.052 3.9316 9.9787-0.46466 14.994-4.2008 0.9084-8.2675 1.4584-12.758 1.9197-3.974-5.4559-6.1754-10.908-1.4016-17.125 3.7933-0.22194 7.5092-0.11475 11.645-0.11405 1.1531 0.007389 1.8861 0.12127 2.9794 0.32587m-5.5151 11.925c0.95331-2.2255 2.3137-4.3918 2.6501-6.707 0.12604-0.86778-2.1954-3.0096-3.2845-2.9323-1.8988 0.13482-4.0782 1.1751-5.4222 2.5417-0.87988 0.89483-1.2205 3.8061-0.52844 4.4547 1.4866 1.3932 3.7972 1.9072 6.585 2.6429z" fill="#5FC1D9"/>
<path d="m773.29 66.614c0.29468-3.02 0.95014-5.9481 1.6434-9.2537 3.6902-4.1714 7.1603-7.7718 13.315-7.5007 6.3777 0.28095 10.95 2.6758 14.161 8.1007 0.76117 1.2857 2.0393 2.2653 3.3085 3.6273-2.14 0.62754-4.5088 1.0134-7.3085 0.99977-2.0847-6.0218-6.1977-8.4661-12.489-7.5656-4.8373 0.69231-7.8114 4.7731-7.9047 10.846-1.4549 0.27936-2.9098 0.55874-4.7255 0.74618z" fill="#5FC1D9"/>
<path d="m1498.2 138.29c2.2894-3.3942 4.8293-6.5531 7.5676-9.9715 3.826-0.1162 7.6263-0.61367 11.044 0.30724 6.6077 1.7802 10.058 7.865 10.195 16.799-1.1735 0.2394-2.3451 0.057541-3.7939-0.75388-1.3075-7.3814-4.1389-10.841-9.4816-11.875-5.3079-1.0277-8.8971 0.89809-11.891 6.3798-1.1304-0.21668-2.2606-0.43336-3.6414-0.88534z" fill="#E554A8"/>
<path d="m1502.2 139.41c2.7035-5.7103 6.2927-7.6361 11.601-6.6084 5.3427 1.0345 8.1741 4.4941 9.2296 11.627-6.8298-1.3427-13.685-3.0662-20.83-5.0182z" fill="#DD3191"/>
<path d="m778.43 65.914c-0.32257-6.1194 2.6516-10.2 7.4888-10.892 6.2917-0.90047 10.405 1.5438 12.062 7.5371-6.3761 1.3813-12.756 2.3915-19.551 3.3553z" fill="#48BAD8"/>
<path d="m1766.4 200.12c4.5806-0.12468 9.5094-0.049393 14.545 0.40979-4.661 0.186-9.429-0.011902-14.545-0.40979z" fill="#DE4F9F"/>
<path d="m428.35 120.15c3.5987-0.24854 7.5015-0.23364 11.528 0.14313-3.6588 0.28135-7.4414 0.20083-11.528-0.14313z" fill="#1C9DC0"/>
<path d="m1843.4 204.02c1.0875-0.47331 2.4906-0.72459 4.2703-0.98746 1.8945 0.18048 3.4124 0.37256 5.1646 0.86324-2.8835 0.31447-6.0015 0.33035-9.4348 0.12422z" fill="#E060A7"/>
<path d="m489.31 120.75c2.4496-0.61089 5.3316-1.1084 8.667-1.4563-2.4426 0.62295-5.3386 1.0963-8.667 1.4563z" fill="#5FC1D9"/>
<path d="m1873.3 205.12c2.3572-0.46242 5.0328-0.71991 8.1346-0.9614 0.45252 0.19127 0.47888 0.36652 0.50794 0.80763-2.773 0.29683-5.5485 0.32777-8.6426 0.15376z" fill="#E060A7"/>
<path d="m484.86 119.01c0.052002 0.39198 0.104 0.78397 0.19223 1.4698-2.7045 0.38738-5.4452 0.4809-8.4867 0.25497-0.022308-0.79284 0.25607-1.2662 0.96472-1.7235 2.73 0.01033 5.0299 0.004539 7.3297-0.001252z" fill="#5FC1D9"/>
<path d="m1050.3 41.065c2.1837-0.35843 4.6598-0.48787 7.3984-0.3325-2.1937 0.37704-4.6499 0.46926-7.3984 0.3325z" fill="#E571B4"/>
<path d="m1900.3 206.07c1.5393-0.3096 3.3606-0.42146 5.4312-0.27557-1.5503 0.32959-3.3497 0.40144-5.4312 0.27557z" fill="#E060A7"/>
<path d="m1074.3 41.999c1.571-0.33478 3.3903-0.42573 5.443-0.23689-1.5759 0.34677-3.3854 0.41374-5.443 0.23689z" fill="#E571B4"/>
<path d="m1092.3 43.018c1.2804-0.31815 2.7922-0.39742 4.5153-0.19277-1.2871 0.33315-2.7854 0.38241-4.5153 0.19277z" fill="#E571B4"/>
<path d="m1755.3 199.08c1.2947-0.21193 2.896-0.21936 4.6273 0.06871-1.3536 0.24226-2.837 0.18903-4.6273-0.06871z" fill="#DE4F9F"/>
<path d="m1106.3 44.089c1.2996-0.25294 2.8735-0.26272 4.5754 0.009819-1.3484 0.266-2.8246 0.24967-4.5754-0.009819z" fill="#E571B4"/>
<path d="m1793.3 201.98c0.95947-0.30216 2.1414-0.39929 3.5233-0.24205-0.96692 0.31862-2.1339 0.38284-3.5233 0.24205z" fill="#DA509F"/>
<path d="m477.1 119c-0.27841 0.4734-0.55679 0.9468-0.98193 1.6543-0.89487 0.25357-1.643 0.27305-2.7581 0.21757-0.36526-0.77123-0.36359-1.4675-0.031739-2.3816 1.4774 0.024688 2.6246 0.26723 3.7718 0.50978z" fill="#1C9DC0"/>
<path d="m1746.3 198.09c1.0001-0.21852 2.2744-0.21196 3.6666 0.077468-1.0522 0.23778-2.2224 0.1927-3.6666-0.077468z" fill="#DE4F9F"/>
<path d="m504.21 119.26c0.63062-0.4284 1.4818-0.67853 2.5364-0.71233-0.63635 0.44109-1.4761 0.66584-2.5364 0.71233z" fill="#5FC1D9"/>
<path d="m1117.3 45.093c0.66272-0.27278 1.5753-0.33594 2.6116-0.17566-0.70471 0.2774-1.5333 0.33134-2.6116 0.17566z" fill="#E571B4"/>
<path d="m534.25 115.52c0.31293-0.3797 0.89105-0.67047 1.6045-0.74706-0.3562 0.42146-0.84778 0.62872-1.6045 0.74706z" fill="#24A3C5"/>
<path d="m1388.2 110.11c0.42578-0.17568 1.0466-0.15101 1.7275 0.1158-0.47082 0.18961-1.0016 0.13708-1.7275-0.1158z" fill="#DD459B"/>
<path d="m514.17 118.23c0.38031-0.36455 0.93567-0.57018 1.649-0.57094-0.38599 0.37987-0.92999 0.55486-1.649 0.57094z" fill="#5FC1D9"/>
<path d="m656.24 89.501c0.2951-0.3977 0.8598-0.71033 1.5681-0.82265-0.33704 0.43611-0.81775 0.67192-1.5681 0.82265z" fill="#48BAD8"/>
<path d="m863.12 55.306c0.36414-0.37629 0.98425-0.58772 1.7307-0.59938-0.40729 0.38792-0.94098 0.57608-1.7307 0.59938z" fill="#5FC1D9"/>
<path d="m853.13 56.403c0.3562-0.39519 0.97748-0.63756 1.7296-0.6728-0.40094 0.41329-0.93268 0.61945-1.7296 0.6728z" fill="#5FC1D9"/>
<path d="m844 56.238c0.55914-0.05476 1.1083 0.092079 1.8251 0.47528-0.36621 0.43319-0.90021 0.63002-1.6978 0.67364-0.22693-0.41876-0.18482-0.68346-0.12732-1.1489z" fill="#5FC1D9"/>
<path d="m1827.3 96.94c-11.843-0.038177-17.36-6.7652-14.405-17.542 5.3195-9.0991 18.344-8.4705 22.02 0.070229 2.2786 5.2942 1.9889 13.564-7.6145 17.472m3.2452-14.998c-2.6016-3.8569-7.1233-5.353-10.475-3.331-3.8608 2.3288-3.7274 6.0724-2.725 9.6611 0.84534 3.0252 5.994 4.6087 9.395 3.3139 3.6599-1.3932 5.4055-5.0822 3.8051-9.644z" fill="#C14D90"/>
<path d="m1872.9 114.23c3.2396-4.2325 7.5515-5.7868 11.492-3.1663 2.5957 1.7263 4.9918 5.6931 5.0992 8.7403 0.14136 4.0093-2.9469 7.1988-7.4852 8.047-7.1974 1.345-11.444-4.7022-9.1057-13.621m9.0596 0.41356c-1.782 1.0575-3.8083 1.8754-5.2098 3.3059-0.47424 0.48385 0.34668 3.4337 1.0745 3.6612 1.7775 0.5556 4.4387 0.96143 5.6796 0.021759 2.9376-2.2247 1.2458-4.6135-1.5442-6.9888z" fill="#C14D90"/>
<path d="m1917.7 43.615c0.7749 5.2463-1.9202 8.5388-5.8922 10.088-3.4496 1.3457-7.12 0.45918-9.662-3.0107-2.8126-3.8391-2.3318-8.3564 1.5145-11.848 3.109-2.8222 8.017-2.7049 11.048 0.42123 1.126 1.1613 1.918 2.6464 2.9918 4.3489m-6.1792 4.4032c2.515-2.3013 1.3297-4.3639-0.85205-5.6593-1.0568-0.62741-3.7766-0.47347-4.17 0.21974-0.83411 1.4698-1.3197 3.8116-0.70605 5.275 0.98474 2.3483 3.1445 2.8234 5.7281 0.16458z" fill="#C14D90"/>
<path d="m1811.2 24.226c-3.2896 2.5578-6.8511 2.9349-9.0596 0.037506-1.4874-1.9513-2.2841-5.9882-1.2252-7.8822 1.0546-1.8866 4.8394-3.1777 7.3755-3.0974 4.2913 0.13603 5.6477 5.3822 2.9093 10.942z" fill="#C14D90"/>
<path d="m1502.6 19.928c11.507-1.0166 18.262 8.7703 18.324 21.526-1.7329 2.7095-3.2778 5.1717-5.2188 7.267-5.5698 6.0127-13.496 7.0706-21.202 3.0462-6.2285-3.2529-9.6078-10.921-8.2651-18.086 1.394-7.4388 7.1145-13.138 16.361-13.753m3.8669 29.321c1.3367-0.66765 2.7106-1.2707 4.0034-2.0143 5.0521-2.9059 6.7364-9.8249 3.9954-16.242-2.0396-4.7747-9.3224-8.1537-14.188-6.5826-6.8656 2.2171-10.833 9.1419-9.2157 16.085 1.3772 5.9124 7.6892 9.8126 15.405 8.7533z" fill="#E554A8"/>
<path d="m1537.1 76.685c6.1785 6.037 6.5996 11.511 2.0938 16.778-3.1869 3.7253-7.0227 4.5809-11.121 2.8811-4.3519-1.805-7.1617-5.1323-7.0918-10.389 0.065918-4.96 2.3931-8.5021 6.8368-9.8232 2.7198-0.80861 5.9661 0.1527 9.2822 0.55294m-8.6592 4.1515c-3.5815 1.8238-2.996 5.1624-1.8618 7.6853 0.72754 1.6181 3.7051 3.5275 5.1923 3.1891 2.1113-0.4805 4.6072-2.5568 5.4672-4.5775 1.8979-4.459-2.0291-7.5176-8.7976-6.2968z" fill="#E554A8"/>
<path d="m1590.8 147.78c-8.6764-4.8084-9.98-11.234-3.8494-17.219 3.058-2.9852 8.697-3.7063 12.328-1.3747 4.1012 2.6333 5.4332 6.6001 4.4149 11.204-1.0406 4.7042-3.9694 7.5355-9.0345 7.6333-1.1577 0.022323-2.3176-0.072907-3.8591-0.24336m8.9197-9.4227c-0.39331-1.0663-0.48486-2.6723-1.2386-3.0938-1.9478-1.089-4.4916-2.6674-6.2261-2.1469-1.7561 0.52695-3.9408 3.3687-3.89 5.1375 0.05249 1.826 2.2194 4.3788 4.0839 5.2007 3.8485 1.6964 5.4437-1.6747 7.2709-5.0975z" fill="#E554A8"/>
<path d="m1731.1 130.62c-0.6449 4.1129-1.3333 7.8529-2.0868 11.975-1.4398 1.31-2.8059 2.2507-4.1904 3.1632-6.3568 4.1894-11.299 4.4088-16.609 0.74934-6.2531-4.3092-8.4738-9.9776-6.7578-17.25 0.18958-0.80339 0.38123-1.6063 0.59412-2.8265 4.5647-4.6364 9.0917-8.8912 16.551-7.5169 7.3671 0.67004 10.844 5.0156 12.499 11.706m-20.438-5.7114c-0.93115 0.94692-2.0284 1.7807-2.7643 2.8607-2.8243 4.1452-2.0082 8.4017 0.73084 12.001 2.3639 3.1066 5.8466 5.0975 10.05 3.8137 6.4534-1.9709 9.6656-8.221 7.4019-13.983-2.3662-6.0223-8.176-8.0507-15.418-4.6924z" fill="#DE53A1"/>
<path d="m1625 83.416c-0.061279-5.8085 3.9297-7.9422 7.9885-7.9636 3.0847-0.016273 6.759 1.9585 9.135 4.1637 3.2537 3.0197 2.6323 7.0721-0.021118 11.023-6.8815 5.614-11.1 5.8406-15.232 0.4539-1.3958-1.8197-1.278-4.8004-1.8705-7.6769m6.7108-2.5365c-3.4037 2.5739-2.8894 5.4997-0.003052 7.724 1.1733 0.90427 4.1204 0.95068 5.2583 0.07914 1.3217-1.0122 2.4427-3.6867 2.0535-5.2387-0.79358-3.1626-3.4508-4.2157-7.3087-2.5644z" fill="#DE53A1"/>
<path d="m215.47 103.02c-2.6686-7.7567-2.0662-10.008 3.519-14.642 2.0887-0.34757 4.0953-0.35175 6.5313-0.35391 5.0648 3.766 7.058 8.2989 4.465 14.54-4.7467 2.8563-9.4269 3.735-14.515 0.45622m4.7615-2.5253c2.1276-0.66425 4.2552-1.3285 6.3828-1.9928-0.5114-1.5875-0.58884-4.0113-1.6408-4.5572-1.4096-0.7315-3.9704-0.63469-5.3261 0.22606-2.396 1.5213-2.1171 3.8695 0.58404 6.3239z" fill="#43A7BF"/>
<path d="m1414.3 54c-5.5157-1.2913-8.2142-5.3789-7.2118-10.297 0.78491-3.8499 5.8248-7.1215 10.316-6.6963 3.7103 0.35124 7.6653 4.8166 7.6114 8.5938-0.059571 4.1741-4.2572 8.1838-8.802 8.3995-0.49841 0.023655-0.9989 0.002632-1.9137 1.94e-4m5.5475-7.7764c-1.6283-1.6644-3.2567-3.3288-4.8851-4.9932-0.9231 1.8799-2.7845 3.8722-2.5758 5.6166 0.44678 3.7315 3.5472 3.6836 7.4609-0.62339z" fill="#E554A8"/>
<path d="m1731.4 57.131c-0.32422-7.9864 3.1252-11.061 10.218-9.1579 1.1796 0.95012 1.9833 1.8562 3.0576 2.902 0.68738 4.1934-0.006348 7.7526-4.3571 9.9672-3.0846-1.0876-5.8529-2.3176-8.9185-3.7113z" fill="#C14D90"/>
<path d="m1308.8 14.777c3.8553-2.8208 7.4242-2.5048 9.8325 0.95067 2.1638 3.1046 2.1045 6.9718-1.3756 9.2823-2.9642 1.9679-6.9739 2.0746-8.7081-1.3701-1.1506-2.2856-0.099731-5.6795 0.25122-8.8629z" fill="#E060A7"/>
<path d="m477.53 119.01c-1.5774-0.25866-2.7246-0.50121-4.2028-0.87408-7.9265-6.201-9.7972-13.623-5.0379-20.476 3.8939-5.6065 11.02-9.464 20.325-3.7874 8.2555 10.141 7.03 19.013-3.4215 25.014-2.6327 0.12855-4.9326 0.13434-7.6626 0.12401m10.01-18.971c-4.5637-4.328-8.6089-5.1576-12.385-2.5398-4.3895 3.0432-5.6236 8.9427-2.7667 13.226 2.7355 4.1009 7.7704 5.4657 11.771 3.191 5.2179-2.9667 6.7384-8.1647 3.38-13.877z" fill="#4AB4CE"/>
<path d="m529.57 44.017c7.5751 9.0596 6.8896 15.605-1.7572 20.709-4.319 2.5495-8.4562 1.5382-14.474-3.6315-1.5186-4.7122-2.58-9.2845 0.61706-13.483 3.6636-4.8116 8.0316-5.8134 15.615-3.5945m-2.662 15.584c3.5469-4.2812 3.296-9.2577-0.5495-11.325-3.4393-1.849-5.8783-0.33737-8.3531 2.0848-2.3628 2.3125-2.5283 4.6462-0.70068 7.0971 2.2817 3.0598 5.1593 4.7043 9.6033 2.1432z" fill="#4AB4CE"/>
<path d="m1580.1 25.638c-9.1187 0.46553-10.174-0.49628-10.117-9.1986 5.8722-5.0015 11.498-4.4083 12.482 1.2317 0.4104 2.3522-1.4001 5.092-2.365 7.9668z" fill="#DA509F"/>
<path d="m279.9 63.988c1.6032-3.4301 3.2064-6.8603 4.9672-10.584 6.0453-3.3995 12.017-5.2297 18.741-1.4491 2.6307 3.4935 4.8763 6.9435 7.2643 11.149-0.87064 4.7989-1.8836 8.8425-2.8965 12.886-8.8958 6.7998-14.064 9.4677-26.512-0.42694-0.77942-4.1638-1.1714-7.8692-1.5634-11.575m6.2024-4.2132c-0.30484 0.59171-0.64075 1.1697-0.90955 1.7773-2.1009 4.7491-1.0244 8.8701 3.2153 12.366 4.5068 3.7162 8.5082 3.9385 13.204 0.73349 3.9633-2.7051 5.8359-7.8808 4.3914-12.138-2.9354-8.6502-12.625-10.333-19.901-2.7393z" fill="#43A7BF"/>
<path d="m279.45 63.992c0.85101 3.7017 1.243 7.4071 1.6791 11.522-5.7009 0.59178-11.446 0.90943-17.191 0.9185-6.0465 0.009529-12.123 0.051033-18.135-0.49274-19.547-1.7681-39.07-3.804-58.605-5.7144-1.6487-0.16124-3.4391 0.20661-4.9414-0.31352-2.1613-0.74831-4.1184-2.0862-5.8947-3.6859 4.2047-2.0984 5.9851-5.273 6.6973-9.2351 7.5106 1.0352 15.012 2.141 22.534 3.0867 8.3506 1.0499 16.698 2.451 25.085 2.8147 16.09 0.69782 32.206 0.77084 48.771 1.0993z" fill="#138BAB"/>
<path d="m308.44 75.993c0.54831-4.0472 1.5612-8.0908 2.5915-12.568 15.348 0.19056 29.651-4.4964 43.988-8.9756 4.5619-1.4253 9.1777-2.7648 13.573-4.6109 3.7178-1.5618 7.1521-3.7987 11.074-5.4112 2.3488 3.4201 4.3357 6.5146 6.3226 9.6091-1.1752 1.2254-2.1255 2.9297-3.5599 3.6032-17.156 8.056-35.343 12.992-53.798 16.838-6.4026 1.3342-13.141 1.059-20.19 1.5153z" fill="#138BAB"/>
<path d="m386.43 54.02c-2.4252-3.077-4.4121-6.1715-6.4184-9.6452 1.007-7.6131 6.0161-11.341 13.471-10.325 2.4369 2.7459 4.4505 5.4898 6.5241 8.5866-0.29709 8.9321-3.2748 11.417-13.577 11.383m6.3461-5.4903c0.68097-2.2099 1.8098-4.4151 1.8326-6.6317 0.009735-0.94755-2.2536-2.6441-3.5422-2.7018-1.7404-0.077961-4.2152 0.60729-5.1218 1.8669-0.94113 1.3077-1.2066 4.5578-0.30469 5.4097 1.523 1.4386 4.1991 1.6563 7.1362 2.0569z" fill="#43A7BF"/>
<path d="m183.03 56.602c-0.69011 4.351-2.4705 7.5256-6.7183 9.253-1.3798 0.13571-2.4487 0.12895-3.9183 0.13305-6.4383-2.0407-7.3573-3.5072-7.3946-11.564 1.2453-5.4859 5.0855-7.2673 9.6531-7.1875 4.4716 0.078098 7.5013 3.7425 8.378 9.3654m-5.5-2.3642c-1.692-0.61578-3.5714-1.9871-5.0216-1.6276-1.357 0.33643-3.1122 2.502-3.121 3.8727-0.008667 1.3629 1.6736 3.1968 3.0839 4.0128 2.9569 1.711 5.2933-0.79968 5.0587-6.2579z" fill="#43A7BF"/>
<path d="m439.18 20.308c-0.24322-9.3502 1.3249-11.241 9.3434-11.276 3.1175 2.9287 5.8959 5.9132 4.1292 10.349-2.2325 5.6049-7.9211 6.0861-13.473 0.92724z" fill="#43A7BF"/>
<path d="m1879 197.5c-2.5656 2.1121-4.9259 4.6078-7.7299 5.2957-6.5597 1.6092-10.197-1.698-12.226-10.417 1.5548-2.8359 3.1248-5.2879 4.8497-8.0334 8.1383-3.7741 16.85 1.2191 15.106 13.155m-4.9451-4.9561c-0.27344-4.013-3.0314-5.2782-6.1843-4.292-1.618 0.50612-3.8292 3.4037-3.5402 4.7365 0.45801 2.1117 2.545 5.0433 4.3846 5.4097 2.8237 0.56238 5.2544-1.5357 5.3398-5.8542z" fill="#C14D90"/>
<path d="m1790.9 136.39c0.6333-1.1717 1.2283-1.9573 1.9545-3.0056 4.4254-1.9056 8.6188-2.2025 11.698 1.869 2.7339 3.6142 1.6405 7.3623-0.59766 11.273-2.9364 0.61614-5.9678 1.5529-8.6562 0.953-4.5354-1.012-5.9712-5.1879-4.399-11.089m7.9934 0.22748c-1.3148 1.2085-2.9418 2.2408-3.7766 3.7201-0.29688 0.52599 1.2041 2.9194 2.1099 3.0656 1.2627 0.2039 3.9167-0.93285 3.9033-1.4415-0.043213-1.6506-1.031-3.2764-2.2366-5.3443z" fill="#DA509F"/>
<path d="m1250.2 58.681c-4.5822 3.9904-8.2083 2.3855-11.815-1.5332 0.54016-2.9537 1.3845-5.7489 2.4387-8.8304 4.0111-1.9797 7.8276-1.5284 9.7271 2.0528 1.0875 2.0503-0.050415 5.2808-0.35107 8.3108z" fill="#E571B4"/>
<path d="m951.87 38.169c-2.9846 0.3415-6.103 0.35127-9.5634 0.1548 0.43878-0.57756 1.2195-0.94889 2.3491-1.3236 2.5927 0.27677 4.8367 0.55692 7.2144 1.1688z" fill="#DA4098"/>
<path d="m1086.6 13.026c1.4305 2.0889 2.4343 4.1663 3.4521 6.6063-0.63562 4.8607-3.6309 7.2068-7.771 7.0739-3.0789-0.098854-5.52-2.1841-5.3-6.337 0.56018-6.3863 1.8854-7.3877 9.6189-7.3433z" fill="#E571B4"/>
<path d="m627.33 91.011c-2.8478-4.5218-5.6717-8.7055-11.133-10.701 11.062-15.888 26.26-27.064 42.625-36.474 10.785-6.2022 22.589-10.629 33.904-15.918 2.1627-1.0108 4.1783-2.336 6.3367-3.8989 6.4014 0.093781 12.728 0.57032 19.832 1.2329 11.888 1.4292 22.997 2.6724 34.107 3.9155-1.6599 0.61104-3.282 1.6007-4.9858 1.7705-9.6567 0.96243-19.388 1.3296-28.99 2.6553-14.339 1.9799-27.541 7.7857-40.789 13.298-1.5228 0.63369-3.0638 1.224-5.2973 1.9323-5.1843-2.6072-9.3529-2.1478-12.688 1.8679-3.2313 3.891-3.3322 8.1393-0.24811 12.305-4.5417 4.0419-9.1249 8.0383-13.614 12.138-5.0049 4.5706-9.8824 9.2811-14.915 13.82-1.0331 0.93178-2.5059 1.3759-4.1456 2.0561z" fill="#34ADCD"/>
<path d="m753.4 29.073c-11.512-1.1492-22.622-2.3924-34.058-3.8736 19.676-10.019 41.096-12.627 62.847-10.91 11.38 0.89827 22.531 4.6999 33.783 7.2059 2.0875 0.46496 4.1583 1.0049 6.4939 1.8444-0.65869 3.4356-1.5745 6.5369-2.4904 9.6382-3.692 0.051453-7.3838 0.10291-11.533 0.12056-6.6721-0.66442-12.874-1.585-19.105-1.8561-8.8199-0.38373-17.666-0.1418-26.489-0.47805-3.0334-0.1156-6.0313-1.1636-9.4479-1.6917z" fill="#DA509F"/>
<path d="m820.38 33.058c0.50708-3.1814 1.4229-6.2827 2.4875-9.7122 6.2079-6.1316 13.207-8.048 21.713-5.3898 0.90485 0.31506 1.3968 0.5763 2.2941 1.245 4.8259 4.5867 8.507 9.137 8.1005 15.739-1.3887 0.010388-2.7774 0.020775-4.5709-0.45997-0.94238-8.013-6.1675-13.452-12.873-13.471-6.5858-0.018018-12.08 5.301-12.59 12.188-1.384-0.019806-2.7681-0.039611-4.5609-0.13949z" fill="#E571B4"/>
<path d="m908.89 37.031c-0.73132 0.32828-1.5719 0.39604-2.6706 0.26845 0.68176-0.30656 1.6215-0.41777 2.6706-0.26845z" fill="#DA4098"/>
<path d="m855.44 35.038c-0.053406-6.6995-3.7345-11.25-8.3023-15.73 3.3218 1.3435 7.0978 2.5538 10.187 4.736 4.4703 3.1575 8.4437 7.0186 12.642 10.968-4.6803 0.30034-9.3737 0.21182-14.527 0.025726z" fill="#DD459B"/>
<path d="m660.33 63.143c-3.4126-4.3127-3.3117-8.561-0.080383-12.452 3.3349-4.0157 7.5035-4.4751 12.354-1.7225 1.61 2.1698 2.8529 4.2922 4.2238 6.7265-0.61597 2.146-1.1342 4.1167-2.1459 5.7887-3.1239 5.1625-7.4413 5.6555-14.351 1.6594m10.523-5.1142c-1.009-1.9622-2.0179-3.9243-3.0269-5.8865-1.7469 0.9789-3.8802 1.6415-5.0607 3.084-0.51068 0.62407 0.54358 3.287 1.5933 4.2686 2.0533 1.9202 4.4313 2.0404 6.4943-1.4662z" fill="#5FC1D9"/>
<path d="m825.3 33.403c0.15552-7.0921 5.6497-12.411 12.236-12.393 6.7058 0.018349 11.931 5.4577 12.469 13.367-8.1165 0.001861-16.233-0.38327-24.704-0.9734z" fill="#DE4F9F"/>
<path d="m1331.1 91.984c-2.6222-1.9424-5.782-3.4653-6.8585-5.9067-1.4263-3.2355 0.2096-6.5899 3.9042-7.9291 4.194-1.5202 7.9675 0.38956 10.123 4.7122 1.8904 3.7914-0.97131 5.8164-3.1134 7.9183-0.82507 0.80956-2.4208 0.8338-4.0549 1.2052z" fill="#DD459B"/>
<path d="m884.64 48.942c-2.3806-0.80484-4.6912-1.3188-6.1777-2.712-0.69202-0.64861-0.35144-3.5599 0.52844-4.4547 1.344-1.3666 3.5234-2.4068 5.4222-2.5417 1.0891-0.077328 3.4105 2.0645 3.2845 2.9323-0.33636 2.3151-1.6968 4.4815-3.0574 6.776z" fill="#2BA8C9"/>
<path d="m1830.8 82.249c1.3661 4.2556-0.37952 7.9446-4.0394 9.3378-3.401 1.2947-8.5497-0.28875-9.395-3.3139-1.0024-3.5887-1.1359-7.3323 2.725-9.6611 3.3518-2.0219 7.8735-0.52587 10.709 3.6373z" fill="#AF1E6F"/>
<path d="m1882.3 114.87c2.5044 2.1535 4.1962 4.5424 1.2585 6.7671-1.2408 0.93968-3.9021 0.53384-5.6796-0.021759-0.72778-0.2275-1.5487-3.1773-1.0745-3.6612 1.4015-1.4304 3.4279-2.2484 5.4955-3.0841z" fill="#AF1E6F"/>
<path d="m1911.3 48.278c-2.3199 2.3994-4.4797 1.9243-5.4645-0.42403-0.61365-1.4633-0.12805-3.8052 0.70605-5.275 0.39343-0.69321 3.1133-0.84716 4.17-0.21974 2.1818 1.2954 3.3671 3.358 0.58838 5.9187z" fill="#AF1E6F"/>
<path d="m1506.1 49.412c-7.3607 0.89583-13.673-3.0044-15.05-8.9168-1.6173-6.9434 2.3501-13.868 9.2157-16.085 4.8652-1.5711 12.148 1.8079 14.188 6.5826 2.7411 6.4168 1.0568 13.336-3.9954 16.242-1.2928 0.74366-2.6667 1.3467-4.358 2.1777z" fill="#DD258C"/>
<path d="m1528.8 80.656c6.4072-1.0408 10.334 2.0177 8.4363 6.4767-0.85999 2.0207-3.3558 4.097-5.4672 4.5775-1.4872 0.33844-4.4647-1.5709-5.1923-3.1891-1.1342-2.5229-1.7197-5.8615 2.2231-7.8652z" fill="#DD258C"/>
<path d="m1599.6 138.7c-1.7034 3.0838-3.2986 6.4548-7.1471 4.7584-1.8645-0.82193-4.0314-3.3747-4.0839-5.2007-0.050781-1.7688 2.1339-4.6105 3.89-5.1375 1.7345-0.52048 4.2783 1.058 6.2261 2.1469 0.75378 0.42145 0.84534 2.0274 1.1149 3.4328z" fill="#DD258C"/>
<path d="m1710.9 124.67c6.9344-3.1204 12.744-1.092 15.11 4.9303 2.2638 5.7622-0.94849 12.012-7.4019 13.983-4.2034 1.2838-7.686-0.70709-10.05-3.8137-2.739-3.5995-3.5552-7.856-0.73084-12.001 0.73584-1.08 1.8331-1.9138 3.0721-3.0986z" fill="#D82388"/>
<path d="m1632 80.659c3.5474-1.4307 6.2046-0.37753 6.9982 2.785 0.38928 1.5521-0.73181 4.2265-2.0535 5.2387-1.1379 0.87154-4.085 0.82513-5.2583-0.07914-2.8864-2.2242-3.4006-5.1501 0.3136-7.9446z" fill="#D82388"/>
<path d="m219.92 100.25c-2.3909-2.2158-2.6698-4.564-0.2738-6.0853 1.3557-0.86075 3.9165-0.95756 5.3261-0.22606 1.0519 0.5459 1.1294 2.9697 1.6408 4.5572-2.1276 0.66426-4.2552 1.3285-6.693 1.7542z" fill="#189ABC"/>
<path d="m1419.6 46.554c-3.7498 3.9774-6.8502 4.0252-7.297 0.29376-0.20874-1.7444 1.6527-3.7367 2.5758-5.6166 1.6284 1.6644 3.2568 3.3288 4.7212 5.3229z" fill="#DD3191"/>
<path d="m487.8 100.32c3.1003 5.4334 1.5798 10.632-3.6381 13.598-4.0009 2.2747-9.0359 0.90987-11.771-3.191-2.857-4.283-1.6229-10.183 2.7667-13.226 3.7758-2.6177 7.821-1.7881 12.643 2.8185z" fill="#1C9DC0"/>
<path d="m526.62 59.854c-4.1566 2.3082-7.0342 0.66365-9.3159-2.3962-1.8276-2.4509-1.6621-4.7846 0.70068-7.0971 2.4748-2.4222 4.9138-3.9339 8.3531-2.0848 3.8455 2.0674 4.0964 7.0439 0.26215 11.578z" fill="#1C9DC0"/>
<path d="m286.31 59.452c7.0724-7.2707 16.762-5.5884 19.697 3.0618 1.4445 4.2567-0.42813 9.4325-4.3914 12.138-4.6957 3.205-8.6971 2.9827-13.204-0.73349-4.2397-3.4959-5.3162-7.6169-3.2153-12.366 0.2688-0.60764 0.60471-1.1856 1.1132-2.0999z" fill="#138BAB"/>
<path d="m392.4 48.695c-2.5641-0.56584-5.2403-0.78359-6.7633-2.2221-0.90189-0.85191-0.63644-4.102 0.30469-5.4097 0.90659-1.2596 3.3815-1.9449 5.1218-1.8669 1.2886 0.057724 3.552 1.7542 3.5422 2.7018-0.022796 2.2166-1.1516 4.4219-2.2055 6.797z" fill="#148FB0"/>
<path d="m177.69 54.596c0.073731 5.1006-2.2626 7.6113-5.2195 5.9003-1.4102-0.81606-3.0925-2.65-3.0839-4.0128 0.008743-1.3706 1.764-3.5362 3.121-3.8727 1.4502-0.35954 3.3295 1.0118 5.1824 1.9852z" fill="#138BAB"/>
<path d="m1874 192.94c-0.087158 3.9144-2.5178 6.0125-5.3416 5.4501-1.8396-0.36636-3.9266-3.298-4.3846-5.4097-0.28906-1.3328 1.9221-4.2304 3.5402-4.7365 3.153-0.98621 5.9109 0.27901 6.186 4.6961z" fill="#BE2078"/>
<path d="m1799.2 136.83c0.9148 1.8516 1.9026 3.4774 1.9458 5.128 0.013427 0.50862-2.6406 1.6454-3.9033 1.4415-0.90576-0.14621-2.4067-2.5397-2.1099-3.0656 0.83484-1.4793 2.4618-2.5116 4.0674-3.5038z" fill="#C1217B"/>
<path d="m670.69 58.385c-1.9062 3.1508-4.2842 3.0306-6.3375 1.1104-1.0497-0.98157-2.1039-3.6445-1.5933-4.2686 1.1804-1.4425 3.3138-2.1051 5.0607-3.084 1.009 1.9622 2.0179 3.9243 2.8701 6.2422z" fill="#3DB4D3"/>
</svg>
